<?xml version="1.0" encoding="utf-8"?>
<!-- Generator: Adobe Illustrator 19.0.0, SVG Export Plug-In . SVG Version: 6.00 Build 0)  -->
<svg version="1.1" id="Layer_1" xmlns="http://www.w3.org/2000/svg" xmlns:xlink="http://www.w3.org/1999/xlink" x="0px" y="0px"
	 viewBox="0 0 64 64" style="enable-background:new 0 0 64 64;" xml:space="preserve">
<style type="text/css">
	.st0{fill:#EE5B80;}
	.st1{fill:none;}
	.st2{fill:#DBDDDC;stroke:#676767;stroke-width:0.3621;stroke-miterlimit:10;}
	.st3{fill:#DBDDDC;}
	.st4{fill:#EB2241;}
	.st5{fill:#6E1011;}
	.st6{fill:#C7E6F1;}
	.st7{fill:#F3F9FA;}
	.st8{fill:#EE5B80;stroke:#6E1011;stroke-width:0.3834;stroke-miterlimit:10;}
	.st9{fill:#EB2241;stroke:#6E1011;stroke-width:0.3834;stroke-miterlimit:10;}
	.st10{opacity:0.5;fill:#F392B6;}
</style>
<g id="XMLID_2375_">
	<g id="XMLID_2300_">
		<path id="XMLID_2626_" class="st0" d="M36.9,36c-0.1-0.1-0.2-0.3-0.2-0.4c0-0.1,0-0.1-0.1-0.2c-1-1.5-2-3-2.9-4.6
			c-0.1-0.1-0.2-0.3-0.3-0.4l0,0c-1.6-1.4-1.5-2.5-1.5-2.9c0-0.1,0-0.2,0-0.2l-0.3,0.1c-0.5-0.1-1.1-0.3-1.6-0.4
			c-1.3-0.4-2.5-1-3.6-1.9c0.1,0.2,0.1,0.2,0.1,0.3c0.6,1.5,1.1,3,1.5,4.5c0.1,0.6,0.3,1.1,0.8,1.6c0.2,0.2,0.3,0.2,0.5,0
			c0.7-0.5,1.3-0.9,2-1.4c0.2-0.1,0.3-0.2,0.5,0c0.4,0.4,0.9,0.7,1.3,1.1c0.3,0.3,0.6,0.4,0.8,0.8c-0.5,0.1-0.9,0.3-1.4,0.2
			c0.2,0.3,0.5,0.6,0.8,0.8c0.2,0.2,0.2,0.3-0.1,0.4c-0.2,0.1-0.5,0-0.7,0.1c-0.2,0-0.5-0.2-0.6,0c-0.1,0.2,0.1,0.4,0.2,0.6
			c0,0.1,0.2,0.3,0.1,0.5c-0.1,0.1-0.3,0.1-0.5,0c-0.1,0-0.1,0-0.2-0.1c-0.3-0.1-0.4-0.1-0.6,0.1c-0.4,0.5-0.9,0.9-1.4,1.4
			c-0.5,0.5-0.8,1-0.9,1.7c-0.2,1.7-0.7,3.4-1.3,4.9c-0.1,0.2-0.1,0.3,0.1,0.5c0.4,0.4,0.6,0.9,0.8,1.4c0.9,2.6,0.2,4.9-1.6,6.9
			c-0.8,0.8-1.7,1.4-2.6,2c0.2,0.2,0.4,0.1,0.5,0c1.6-0.3,3.2-0.9,4.7-1.5c0.2-0.1,0.5-0.3,0.7-0.4c2.3-1.2,4.4-2.7,6.1-4.7
			c0.7-0.9,1.4-1.9,1.8-2.9c0-0.2,0-0.3,0.1-0.5C38.7,40.9,38.5,38.3,36.9,36z"/>
		<path id="XMLID_2479_" class="st1" d="M31.9,27.3c0,0,0,0.1,0,0.2C31.9,27.4,31.9,27.3,31.9,27.3z"/>
	</g>
	<g id="XMLID_2562_">
		<ellipse id="XMLID_2558_" class="st2" cx="45.8" cy="54.4" rx="9" ry="2.7"/>
		<ellipse id="XMLID_2563_" class="st3" cx="24.5" cy="56" rx="11.6" ry="2.4"/>
		<g id="XMLID_835_">
			<path id="XMLID_2359_" class="st0" d="M23.1,28.2c-4-0.5-6.4-2.4-7.7-5.7l-0.6-1.6l0,1.3c0-0.1,0-0.3-0.2-0.4
				c-0.2-0.2-0.6,0-0.7,0.1c-2,1-3.4,2.7-4.3,5.1c-0.8,2-1.1,4-1.4,5.8c0,0.4-0.1,0.7-0.2,1.1c0,0.1,0,0.2,0,0.2H7.4L8,34.4
				c0,0.1,0.1,0.2,0.1,0.3c0.1,0,0.1,0.1,0.2,0.1c0.1,0,0.2,0,0.3-0.1c0.1-0.1,0.2-0.2,0.2-0.3c0,0,0,0,0-0.1
				c0.9-1.3,1.8-2.1,2.8-2.6c1.2-0.6,2.2-0.5,3.1,0.3l0.2,0.2l0.2-0.2c0.2-0.2,0.2-0.4,0.2-0.5c0,0,0,0.1,0,0.1
				c0,0.4,0.1,0.8,0.4,1.1l0.3,0.3l0.2-0.3c0.9-1.2,2-2,3.3-2.5c1.1-0.4,1.9-0.4,2.7,0.1c0,0,0.1,0.1,0.1,0.1l0.3,0.1l0.1-0.3
				c0.2-0.5,0.4-1.1,0.5-1.6l0.1-0.4L23.1,28.2z"/>
			<g id="XMLID_2295_">
				<path id="XMLID_2397_" class="st1" d="M14.5,25.8c0-1.2-0.1-2.4,0-3.5c0-0.3,0-0.5-0.4-0.3c-2,1.1-3.4,2.8-4.2,4.9
					c-0.7,1.8-1.1,3.8-1.3,5.7c-0.1,0.5-0.2,1.1-0.2,1.6c0,0,0,0,0,0c0,0-0.1,0.3,0.1,0.1c0.1,0,0.1-0.2,0.2-0.2
					c0.8-1.1,1.7-2.1,2.9-2.7c1.2-0.5,2.4-0.6,3.4,0.4c0.2-0.2,0.1-0.4,0.1-0.5C14.8,29.5,14.6,27.7,14.5,25.8z"/>
				<path id="XMLID_2434_" class="st4" d="M17.3,23.1c-0.5-1-0.7-2.1-0.7-3.2c0-0.5-0.2-0.7-0.7-0.5c-1.5,0.4-2.8,1-4,2
					c-2.2,1.8-3.4,4.2-4,6.9c-0.6,2.7-0.5,5.4-0.4,8.1c0,0.3,0.1,0.4,0.4,0.5c0.2,0,0.4-0.1,0.5-0.3c0.1-0.1,0.1-0.3,0.2-0.4
					c0.7-1.5,1.7-2.9,3.3-3.7c1.2-0.6,2.4-0.3,3.1,0.9c0.1,0.2,0.2,0.5,0.4,0.7c0.1,0.2,0.2,0.4,0.5,0.4c0.2,0,0.4-0.2,0.5-0.4
					c0.3-0.7,0.8-1.3,1.3-1.8c0.2-0.2,0.5-0.4,0.7-0.6l0,0c0,0,1.9-1.5,4.1-0.9c0.1-0.2,0.1-0.4,0.2-0.5c0,0-0.1,0-0.1,0
					c-1-0.6-2-0.5-3-0.1c-1.4,0.5-2.6,1.4-3.5,2.6c-0.3-0.4-0.3-0.8-0.3-1.3c-0.5-2.9-0.7-5.7-0.5-8.8c1.4,3.8,4.2,5.5,7.9,6
					c0.1-0.3,0.1-0.5,0.2-0.8c0.1-0.4,0.1-0.7,0.2-1.1c-1.7-0.1-3.1-0.7-3.9-1.2C18.6,24.8,17.8,24.1,17.3,23.1z M15,31.8
					c-1-0.9-2.2-0.9-3.4-0.4C10.3,32,9.4,33,8.6,34.1c-0.1,0.1-0.1,0.2-0.2,0.2c-0.2,0.1-0.1-0.1-0.1-0.1c0,0,0,0,0,0
					c0.1-0.5,0.2-1.1,0.2-1.6c0.3-1.9,0.6-3.9,1.3-5.7c0.8-2.1,2.1-3.8,4.2-4.9c0.4-0.2,0.4-0.1,0.4,0.3c-0.1,1.2,0,2.4,0,3.5
					c0,1.8,0.2,3.6,0.5,5.4C15.1,31.5,15.2,31.7,15,31.8z"/>
			</g>
			<g id="XMLID_2296_">
				<path id="XMLID_2298_" class="st4" d="M45.4,16.8c-0.1-1.7-0.8-3.2-1.7-4.6c-0.6,0.3-1.1,0.6-1.8,0.6c-0.4,0-0.6-0.1-0.8-0.4
					c-0.2,0-0.4,0.1-0.7,0.1c-0.1,0.2,0.1,0.5-0.2,0.6c-0.3,0.1-0.6,0.2-0.9,0.2c-0.3,0-0.2-0.4-0.3-0.5c0,0,0,0,0,0
					c-0.2,0-0.4,0.1-0.5,0c-0.2,0.1-0.1,0.4-0.1,0.5c0,0.8-0.2,1.5-0.6,2.2c-1.2,2.1-3.8,2.6-5.7,1.1c-0.5-0.4-0.8-0.9-1.1-1.4
					c-0.1-0.1-0.1-0.4-0.3-0.4c-0.2,0-0.2,0.2-0.3,0.4c-0.1,0.4-0.3,0.7-0.6,1.1c-1,1.3-2.5,1.9-4,1.4c-1.3-0.4-2.1-1.3-2.6-2.6
					c-0.2-0.6-0.4-0.7-1-0.4c-0.1,0.2-0.2,0.3-0.3,0.5c-0.6,1.2-1.9,5-1,12.5c0,0.1,0.1,0.2,0.1,0.4c0,0.1,0,0.2,0,0.2
					c0.1,0.8,0.2,1.6,0.4,2.4c0,0.1,0,0.3,0,0.4c-0.1,0.2-0.1,0.3-0.1,0.5c0.1,0.9,0.1,1.7,0,2.6c0,0.2,0,0.4,0.1,0.6
					c0,0.2,0,0.3-0.1,0.5c-0.1,0.1-0.1,0.3-0.1,0.4c-0.3,2.1-0.8,4.2-2.1,6c-0.1,0.1-0.2,0.3-0.2,0.4c-0.1,0.1-0.2,0.3-0.3,0.4
					c-0.1,0.1-0.2,0.3-0.3,0.4c-0.4,0.6-1,1-1.7,1.1c-0.3,0.1-0.6,0.1-0.8-0.2c-0.4,0-0.8,0-1.2-0.1c-0.1,0.1-0.1,0.3,0,0.5
					c0.1,0.3,0,0.5-0.4,0.5c-0.7,0-1.4-0.1-2.1-0.5c-0.5-0.3-0.5-0.4-0.1-0.8c0.2-0.3,0.6-0.4,0.7-0.8c-0.4-0.5-0.8-1-1.2-1.5
					c-0.2,0.1-0.2,0.2-0.3,0.4c-0.1,0.3-0.3,0.6-0.4,0.9c-0.1,0.2-0.3,0.3-0.5,0.2c-0.6-0.3-1.1-0.7-1.3-1.4c-0.1-0.3,0-0.4,0.3-0.5
					c0.5-0.1,0.9-0.2,1.4-0.2c0.1,0,0.3,0.1,0.3-0.1c-0.6-0.9-1.4-1.7-2.4-2.2c-0.2,0.1-0.2,0.3-0.2,0.5c-0.1,0.3-0.1,0.6-0.2,0.9
					c-0.1,0.1-0.1,0.2-0.3,0.2c-0.6-0.2-1.1-0.5-1.4-1.1c-0.1-0.2-0.1-0.4,0.2-0.5c0.2-0.1,0.5-0.1,0.6-0.3c-0.7-0.2-1.4-0.1-2.1,0
					c-0.6,0-1.2,0.1-1.6,0.6c-0.6,0.3-1.2,0.7-1.7,1.2c-0.5,0.3-0.8,0.7-0.9,1.3c-0.1,0.1-0.1,0.3-0.2,0.4c-0.6,1.4-0.6,2.8,0.2,4.1
					c0.5,0.8,1.2,1.2,2.2,1.2c0-0.1,0-0.1-0.1-0.2c-0.4-1,0-2,0.9-2.5C4.4,43.4,5,43.5,5.5,44c0.2,0.2,0.4,0.5,0.5,0.8
					c0.3,0.6,0.6,1.3,0.8,2c1.2,3.2,3.5,5.4,6.8,6.5c1.1,0.3,2.2,0.5,3.3,0.7l-1.6,2.6c-0.1,0.2,0,0.3,0.2,0.4
					c0.1,0.1,0.3,0.1,0.4,0.1c2.4,0.6,4.8,0.6,7.1,0.2c0.3,0,0.7-0.1,1-0.3c0.5-0.2,0.6-0.4,0.3-0.9c-0.6-1.1-1.5-1.6-2.8-1.5
					c-0.1,0-0.1,0-0.2,0c0.1,0,0.1,0,0.2-0.1c0.8-0.3,1.5-0.6,2.2-1c0.1-0.1,0.3-0.2,0.5-0.3c1.6-0.9,2.9-2.1,3.6-3.8
					c0.9-2.1,0.9-4.1-0.3-6.1c-0.2-0.4-0.3-0.6-0.1-1c0.7-1.6,1.1-3.2,1.3-4.9c0-0.4,0.2-0.7,0.5-1c0.5-0.6,1.1-1.1,1.7-1.7
					c0.2-0.2,0.4-0.2,0.6-0.2c0.8,0.2,0.9,0,0.6-0.7c-0.1-0.3,0-0.3,0.2-0.3c0.3,0,0.5,0,0.8,0c0.4-0.1,0.5-0.4,0.2-0.7
					c-0.2-0.2-0.4-0.4-0.6-0.6c0.3,0,0.6,0,0.8-0.1c0.4-0.1,0.4-0.3,0.1-0.5c-0.6-0.5-1.1-1-1.7-1.5c-0.4-0.3-0.5-0.3-0.9,0
					c-0.6,0.4-1.1,0.8-1.7,1.2c-0.2,0.1-0.4,0.1-0.5-0.1c-0.3-0.3-0.5-0.7-0.6-1.1c-0.3-1.6-0.9-3.2-1.5-4.7
					c0.2,0.2,0.5,0.4,0.7,0.5c1.2,0.7,2.4,1.2,3.8,1.5c0.2,0.1,0.4,0,0.6,0c0.6,0.1,1.3,0.2,1.9,0.2c1.9,0,3.8-0.3,5.4-1.5
					c0.6-0.4,1-0.9,1.3-1.6c0.1-0.4,0.1-0.5-0.3-0.7c-1.2-0.4-2.3-0.9-3.3-1.7c-0.2-0.2-0.5-0.4-0.7-0.7c0.6,0.1,1.2,0.1,1.8,0.2
					c0.2,0.1,0.4,0.1,0.6,0.1c0.5,0.1,1-0.2,1.4-0.2c1-0.1,2-0.3,3-0.8C44.6,20.2,45.5,18.7,45.4,16.8z"/>
				<path id="XMLID_2299_" class="st4" d="M37.4,44.3c-1.4,2.8-3.6,4.8-6.2,6.4c-0.7,0.5-1.5,0.8-2.2,1.2c-0.1,0.1-0.2,0.2-0.2,0.3
					c0,0.1-0.1,0.2-0.1,0.3l-1.5,3.1c0.2,0.1,0.3,0.1,0.5,0.2c2.1,0.5,4.2,0.5,6.2,0.1c1-0.2,1-0.2,0.5-1.1
					c-0.6-0.7-1.5-0.9-2.4-0.8c0.1-0.1,0.3-0.2,0.4-0.2c1.5-0.7,2.8-1.5,4-2.7c2-2,2.4-4.7,1.2-7C37.4,44.1,37.4,44.2,37.4,44.3z"/>
			</g>
			<path id="XMLID_2474_" class="st0" d="M21.9,15.4c-0.4,1-0.8,2-1,3.1c-0.6-0.6-1.1-1.2-1.4-2c-0.1-0.3-0.1-0.5,0.3-0.6
				C20.4,15.6,21.2,15.4,21.9,15.4z"/>
			<path id="XMLID_2395_" class="st5" d="M37.9,10.8c-0.7-1.4-1.8-2.3-3.4-2.4c-1.4-0.1-2.5,0.6-3.3,1.7c-0.3,0.4-0.5,0.9-0.7,1.5
				c-0.1-0.2-0.2-0.4-0.2-0.5c-1-2.1-3.3-3-5.3-1.9c-1.4,0.8-2.1,2-2.2,3.6c0,0.4-0.1,0.5-0.4,0.5l-2.9-0.3c-0.2,0-0.5,0.2-0.5,0.4
				v1.3c0,0.3,0.2,0.5,0.5,0.4l2.8-0.4l0,0c0.1,0,0.1,0,0.2,0c0.4-0.1,0.5,0,0.6,0.3c0.1,0.3,0.2,0.5,0.3,0.7c1.3,2.4,4.2,2.8,6.1,1
				c0.6-0.6,0.9-1.2,1.2-2c0.2,0.3,0.3,0.6,0.5,0.9c1.4,2.4,4.6,2.6,6.3,0.4c0.8-1,1-2.1,1-3.3C38.4,11.9,38.2,11.3,37.9,10.8z"/>
			<path id="XMLID_2471_" class="st0" d="M20.8,22.7c0.1,0.7-0.1,1.6,0,2.4c-0.5-0.6-0.9-1.1-1.3-1.6C19.8,23.3,20.4,22.9,20.8,22.7
				z"/>
			<path id="XMLID_2389_" class="st1" d="M20.9,28c0-0.1,0-0.3-0.1-0.4c0,0.2,0.1,0.4,0.1,0.6C20.9,28.1,20.9,28,20.9,28z"/>
			<path id="XMLID_2485_" class="st4" d="M36.7,35.5c-0.3-0.2-0.5-0.6-0.6-0.9c-0.9-1.4-1.9-2.8-2.7-4.3c1.1,0.3,2.1,0.6,3.2,0.9
				c0.3,0.1,0.4,0.1,0.6-0.2c0.5-0.6,1.1-1.1,1.7-1.7c0.1-0.1,0.2-0.2,0.3-0.1c0.8,0.5,1.7,1,2.5,1.6c-0.4,0.3-0.9,0.3-1.4,0.4
				c0.4,0.3,0.8,0.6,1.2,0.9c-0.4,0.4-0.8,0.5-1.6,0.4c0.2,0.3,0.3,0.6,0.5,0.9c0.2,0.2,0.1,0.3-0.2,0.4c-0.3,0.1-0.5,0-0.8-0.1
				c-0.2-0.1-0.4,0-0.6,0.1C38.1,34.4,37.4,34.9,36.7,35.5z"/>
			<path id="XMLID_2484_" class="st0" d="M21.3,35.1c-0.2,2.4-0.8,4.7-2.3,6.7c0,0-0.1,0.1-0.1,0.1c-0.5-0.5-1-1.1-1.3-1.8
				c-0.1-0.3-0.1-0.5,0.3-0.6c0.7-0.2,1.3-0.4,2-0.4c0.1,0,0.3,0,0.4-0.1c-0.5-0.5-1-1-1.4-1.5c-0.2-0.3-0.4-0.7-0.6-1.1
				c-0.1-0.3,0-0.4,0.2-0.5C19.4,35.3,20.3,35.1,21.3,35.1z"/>
			<path id="XMLID_2483_" class="st0" d="M23.6,8.6c0.2-0.8,0.7-1.4,1.4-1.8c1-0.7,2.2-1.1,3.4-1.1c0.2,0,0.4,0.1,0.4,0.3
				C28.9,6.5,29,7,29,7.5c0,0.3,0,0.3-0.3,0.3C27,7.5,25.3,7.7,23.6,8.6z"/>
			<path id="XMLID_2482_" class="st0" d="M32.3,7.7c0-0.6,0-1.1,0-1.6c0-0.2,0-0.2,0.2-0.3c1.4-0.5,3.7,0.2,4.1,2
				C35.2,7.3,33.8,7.1,32.3,7.7z"/>
			<path id="XMLID_2481_" class="st0" d="M21.3,31c0.1,1.2,0.1,2.4,0,3.6c-0.9-0.4-1.6-1-2.3-1.7c-0.3-0.3-0.3-0.6,0.1-0.8
				C19.8,31.6,20.6,31.2,21.3,31z"/>
			<path id="XMLID_2480_" class="st0" d="M14.5,43.5c0,0.2,0,0.3,0.1,0.5c0.2,0.4,0,0.6-0.4,0.6c-0.9,0.1-1.8-0.1-2.5-0.7
				c-0.2-0.2-0.2-0.3,0-0.5c0.3-0.3,0.7-0.6,1-1c0.1-0.1,0.2-0.1,0.3-0.2c0.9-0.5,0.8-0.6,1.3,0.4C14.3,42.9,14.4,43.2,14.5,43.5z"
				/>
			<path id="XMLID_2478_" class="st0" d="M18.6,42.2c0,0.4-0.3,0.6-0.5,0.9c-0.5,0.5-1.1,0.7-1.8,0.8c-0.3,0-0.4-0.2-0.5-0.4
				c-0.1-0.7-0.2-1.3,0-2c0.1-0.3,0.2-0.4,0.6-0.4C17.1,41.5,17.8,41.8,18.6,42.2z"/>
			<path id="XMLID_2477_" class="st0" d="M43.7,12.1c-0.3,0.5-0.9,0.6-1.5,0.7c-0.2,0-0.5,0-0.7,0c-0.3,0-0.5-0.2-0.5-0.5
				c0.2-0.7,0.3-1.3,0.5-2c0.2-0.5,0.3-0.6,0.7-0.2C42.8,10.7,43.3,11.4,43.7,12.1z"/>
			<path id="XMLID_2476_" class="st0" d="M11.4,40.9c-0.2,0.5-0.4,1.1-0.7,1.5c-0.1,0.1-0.2,0.3-0.4,0.2c-0.8-0.4-1.3-0.9-1.6-1.7
				c-0.1-0.3,0-0.4,0.3-0.5c0.6-0.2,1.2-0.2,1.9-0.2C11.3,40.3,11.4,40.5,11.4,40.9z"/>
			<path id="XMLID_2475_" class="st0" d="M20.8,19.1c-0.1,1.1-0.2,2.1-0.2,3.2c-0.7-0.3-1.4-0.8-1.9-1.3c-0.3-0.3-0.3-0.5,0.1-0.8
				C19.4,19.7,20.1,19.4,20.8,19.1z"/>
			<path id="XMLID_2473_" class="st0" d="M8.5,38.1c-0.1,0.5-0.2,1-0.4,1.5C8,39.7,8,39.8,7.8,39.8c-0.7-0.2-1.3-0.6-1.6-1.3
				C6,38.2,6,38,6.4,37.9c0.2-0.1,0.5-0.2,0.7-0.2c0.3,0,0.6-0.1,0.9-0.1C8.3,37.6,8.5,37.7,8.5,38.1z"/>
			<path id="XMLID_2472_" class="st0" d="M40.4,12.4c0.2,0.6,0.2,0.7-0.4,0.8c-0.1,0-0.1,0-0.2,0.1c-0.7,0.1-0.8,0-0.8-0.7
				c0.1-0.3,0.2-0.6,0.3-0.9c0.1-0.3,0.3-0.3,0.4-0.1C39.9,11.8,40.1,12.1,40.4,12.4z"/>
			<path id="XMLID_2470_" class="st0" d="M37.8,21.8c0.7,0,1.3-0.1,2-0.1c-0.5,0-0.6,0.5-0.8,0.8c-0.1,0.2-0.2,0.4-0.4,0.4
				c-0.2,0-0.3-0.2-0.4-0.4C38.1,22.3,38,22.1,37.8,21.8z"/>
			<path id="XMLID_2469_" class="st0" d="M4.9,37.7c-0.6,0.1-1.1,0.3-1.6,0.6C3.6,36.8,3.7,36.9,4.9,37.7
				C4.9,37.6,4.9,37.6,4.9,37.7z"/>
			<path id="XMLID_2468_" class="st0" d="M1.7,39.4c-0.3,0.4-0.6,0.8-0.9,1.3c0-0.1,0-0.1-0.1-0.2c-0.1-0.4-0.4-0.8-0.1-1.1
				C0.8,39.2,1.3,39.3,1.7,39.4z"/>
			<path id="XMLID_2467_" class="st5" d="M36.8,25.1c-1.1,0.2-2.1,0-3.2-0.3c-1.8-0.5-3.3-1.4-4.6-2.7c0.1-0.1,0.3-0.1,0.5-0.1
				c0.7,0.1,1.4,0.1,2.1,0.3c0.1,0,0.2,0,0.2,0.1c0.2,0.3,0.5,0.3,0.7,0.1c0.4,0.3,0.9,0.4,1.3,0.6c1,0.4,1.8,1,2.6,1.6
				C36.7,24.7,36.9,24.8,36.8,25.1z"/>
			<path id="XMLID_2465_" class="st0" d="M36.8,25.1c-0.8-0.8-1.7-1.4-2.8-1.9c-0.4-0.2-0.8-0.3-1.2-0.5c-0.1,0-0.3-0.1-0.3-0.3
				c0-0.4,0.2-0.7,0.5-1c0.5-0.1,0.8,0.1,1,0.5c0.5,0.9,1.4,1.4,2.3,1.9c0.6,0.4,1.3,0.6,2,0.9C37.9,25,37.4,25.1,36.8,25.1z"/>
			<path id="XMLID_2464_" class="st0" d="M31.8,22.4c-0.7-0.1-1.3-0.1-2-0.2c-0.2,0-0.5-0.1-0.7,0c-0.7-0.6-1.2-1.4-1.6-2.3
				c0.4,0.2,0.8,0.4,1.2,0.6c0.6,0.3,1.3,0.5,1.9,0.6c0.2,0,0.4,0,0.5,0.2C31.5,21.5,31.8,21.9,31.8,22.4z"/>
			<path id="XMLID_2463_" class="st6" d="M31.8,22.4c-0.2-0.4-0.4-0.7-0.6-1.1c0.5-0.1,1,0.2,1.5,0.2c0.1,0,0.3,0,0.4,0.1
				c-0.2,0.3-0.4,0.7-0.5,1C32.2,23,32.2,23,31.8,22.4z"/>
			<path id="XMLID_2462_" class="st7" d="M29.7,13.1c0,1-0.3,1.9-0.9,2.5c-1.2,1.3-3.1,1.2-4.2-0.1c-1.1-1.3-1.1-3.5,0.1-4.7
				c1.2-1.3,3.2-1.3,4.3,0.2C29.5,11.7,29.7,12.4,29.7,13.1z"/>
			<path id="XMLID_2461_" class="st7" d="M34.4,16.1c-1,0-1.7-0.5-2.3-1.3c-0.9-1.2-0.8-3,0.2-4.2c1.1-1.4,3.1-1.4,4.2,0
				c1.4,1.6,0.9,4.3-0.9,5.2C35.2,16,34.8,16.1,34.4,16.1z"/>
			<path id="XMLID_2460_" class="st5" d="M26.9,13.2C26.9,13.3,26.9,13.3,26.9,13.2c0,0.7-0.3,1.1-0.7,1.2c-0.4,0.1-0.7-0.3-0.9-0.7
				c-0.1-0.6,0.1-1.3,0.5-1.4c0.1,0,0.3-0.1,0.4,0c0.1,0.1,0,0.2,0,0.3C26.1,13.1,26.4,13.3,26.9,13.2z"/>
			<path id="XMLID_2459_" class="st5" d="M33.5,12.3c-0.2,0.3-0.2,0.7,0,1c0.2,0.2,0.4,0.1,0.6,0c0,0,0,0.1,0,0.1
				c0,0.6-0.3,1-0.8,1.1c-0.4,0-0.8-0.5-0.8-1.1C32.5,12.7,32.9,12.3,33.5,12.3z"/>
		</g>
		<g id="XMLID_2547_">
			<path id="XMLID_2302_" class="st8" d="M53.4,51.1H38.6v1.3c0,1.9,3.3,3.5,7.4,3.5s7.4-1.6,7.4-3.5V51.1"/>
			<ellipse id="XMLID_2303_" class="st9" cx="46" cy="51.1" rx="7.4" ry="3.5"/>
			<path id="XMLID_2550_" class="st0" d="M46,48c3.9,0,7.1,1.4,7.2,3.2c0-0.1,0-0.1,0-0.2c0-1.9-3.2-3.4-7.3-3.4s-7.3,1.5-7.3,3.4
				c0,0.1,0,0.1,0,0.2C39,49.4,42.1,48,46,48z"/>
		</g>
		<g id="XMLID_2549_">
			<path id="XMLID_2553_" class="st8" d="M60.8,37l-13.3,6.8l0.6,1.1c0.9,1.7,4.6,1.6,8.2-0.3c3.7-1.9,5.9-4.8,5-6.5L60.8,37"/>
			
				<ellipse id="XMLID_2552_" transform="matrix(0.8899 -0.4562 0.4562 0.8899 -12.4536 29.1518)" class="st9" cx="54.2" cy="40.4" rx="7.4" ry="3.5"/>
			<path id="XMLID_2551_" class="st0" d="M52.7,37.6c3.5-1.8,6.9-1.9,7.9-0.4c0-0.1,0-0.1-0.1-0.2c-0.9-1.7-4.4-1.6-8,0.3
				c-3.6,1.8-5.8,4.7-4.9,6.4c0,0.1,0.1,0.1,0.1,0.2C47.1,42.1,49.3,39.3,52.7,37.6z"/>
		</g>
		<g id="XMLID_2554_">
			<path id="XMLID_2557_" class="st8" d="M50.8,35l-13.5-6.2L36.7,30c-0.8,1.8,1.6,4.6,5.3,6.3s7.4,1.7,8.2-0.1L50.8,35"/>
			
				<ellipse id="XMLID_2556_" transform="matrix(0.9095 0.4157 -0.4157 0.9095 17.2423 -15.4069)" class="st9" cx="44" cy="31.9" rx="7.4" ry="3.5"/>
			<path id="XMLID_2555_" class="st0" d="M45.3,29c3.5,1.6,5.8,4.2,5.2,6c0-0.1,0.1-0.1,0.1-0.2c0.8-1.7-1.5-4.5-5.2-6.1
				c-3.6-1.7-7.2-1.6-8,0.1c0,0.1,0,0.1-0.1,0.2C38.3,27.4,41.8,27.4,45.3,29z"/>
		</g>
		<path id="XMLID_2548_" class="st10" d="M58.8,32.1L58.8,32.1c0.1,0.6,0.5,1.1,1.1,1.1h0h0c-0.6,0.1-1.1,0.5-1.1,1.1l0,0l0,0
			c-0.1-0.6-0.5-1.1-1.1-1.1h0l0,0C58.3,33.2,58.8,32.7,58.8,32.1L58.8,32.1z"/>
		<path id="XMLID_2559_" class="st10" d="M51.7,27.9L51.7,27.9c0.1,0.9,0.8,1.5,1.7,1.7h0h0c-0.9,0.1-1.5,0.8-1.7,1.7v0v0
			c-0.1-0.9-0.8-1.5-1.7-1.7h0l0,0C50.9,29.4,51.6,28.7,51.7,27.9L51.7,27.9z"/>
		<path id="XMLID_2560_" class="st10" d="M61.8,33.1L61.8,33.1c0.2,1.1,1,1.9,2.1,2.1l0,0h0c-1.1,0.2-1.9,1-2.1,2.1v0l0,0
			c-0.2-1.1-1-1.9-2.1-2.1h0l0,0C60.8,35,61.7,34.1,61.8,33.1L61.8,33.1z"/>
		<path id="XMLID_2561_" class="st10" d="M41.1,42.7L41.1,42.7c0.2,1.1,1,2,2.1,2.1h0h0c-1.1,0.2-2,1-2.1,2.1l0,0l0,0
			c-0.2-1.1-1-2-2.1-2.1h0l0,0C40.1,44.7,41,43.8,41.1,42.7L41.1,42.7z"/>
	</g>
</g>
</svg>
