<?xml version="1.0" encoding="utf-8"?>
<!-- Generator: Adobe Illustrator 19.0.0, SVG Export Plug-In . SVG Version: 6.00 Build 0)  -->
<svg version="1.1" id="Layer_1" xmlns="http://www.w3.org/2000/svg" xmlns:xlink="http://www.w3.org/1999/xlink" x="0px" y="0px"
	 viewBox="0 0 193 230" style="enable-background:new 0 0 193 230;" xml:space="preserve">
<style type="text/css">
	.st0{opacity:0.2;}
	.st1{fill:#DCDEDD;stroke:#666666;stroke-width:1.1177;stroke-miterlimit:10;}
	.st2{fill:#DCDEDD;}
	.st3{fill:#EF5B80;}
	.st4{fill:none;}
	.st5{fill:#ED2040;}
	.st6{fill:#6E0E10;}
	.st7{fill:#C8E7F2;}
	.st8{fill:#F4FAFB;}
	.st9{fill:#EF5B80;stroke:#6E0E10;stroke-width:1.1833;stroke-miterlimit:10;}
	.st10{fill:#ED2040;stroke:#6E0E10;stroke-width:1.1833;stroke-miterlimit:10;}
	.st11{opacity:0.5;fill:#FF94B8;}
</style>
<g id="XMLID_3155_" class="st0">
	<ellipse id="XMLID_3231_" class="st1" cx="143.3" cy="185.2" rx="27.8" ry="8.4"/>
	<ellipse id="XMLID_3228_" class="st2" cx="77.7" cy="190.1" rx="35.9" ry="7.3"/>
	<g id="XMLID_3180_">
		<path id="XMLID_3227_" class="st3" d="M73.3,104.1c-12.3-1.7-19.8-7.3-23.6-17.7l-1.8-4.8l-0.1,4c0-0.5-0.1-1-0.6-1.3
			c-0.8-0.5-1.7,0-2.1,0.2C39,87.6,34.6,92.7,31.7,100c-2.4,6-3.5,12.4-4.2,17.8c-0.1,1.1-0.3,2.2-0.5,3.3c0,0.2-0.1,0.5-0.1,0.7
			h-2.2l2,1.5c0,0.4,0.2,0.6,0.4,0.8c0.2,0.1,0.4,0.2,0.6,0.2c0.3,0,0.5-0.1,0.8-0.3c0.4-0.2,0.6-0.6,0.7-0.9c0-0.1,0.1-0.1,0.1-0.2
			c2.8-4,5.5-6.4,8.7-7.9c3.8-1.7,6.8-1.4,9.4,1l0.6,0.6l0.7-0.5c0.6-0.5,0.7-1.1,0.7-1.6c0,0.1,0,0.2,0,0.2
			c0.1,1.1,0.2,2.3,1.1,3.4l0.8,1l0.8-1c2.6-3.6,6.1-6.2,10.2-7.7c3.4-1.2,6-1.1,8.3,0.3c0.1,0.1,0.3,0.2,0.4,0.2l0.9,0.4l0.4-0.9
			c0.6-1.6,1.1-3.3,1.6-5.1l0.3-1.1L73.3,104.1z"/>
		<g id="XMLID_3217_">
			<path id="XMLID_3226_" class="st4" d="M46.8,97c-0.1-3.6-0.4-7.3,0-10.9c0.1-1.1-0.1-1.4-1.2-0.8c-6.3,3.3-10.3,8.6-12.9,15.1
				c-2.3,5.6-3.3,11.6-4.1,17.6c-0.2,1.7-0.5,3.3-0.8,4.9c0,0,0,0,0,0c0.2,0.1-0.3,0.8,0.4,0.4c0.2-0.2,0.4-0.5,0.6-0.8
				c2.4-3.4,5.2-6.4,9.1-8.2c3.7-1.7,7.3-1.8,10.5,1.1c0.6-0.5,0.2-1.1,0.2-1.7C47.5,108.2,46.9,102.6,46.8,97z"/>
			<path id="XMLID_3218_" class="st5" d="M55.3,88.4c-1.6-3.1-2.2-6.3-2.2-9.8c0-1.7-0.6-2.1-2.2-1.7c-4.5,1.2-8.7,3.2-12.4,6.1
				c-6.9,5.5-10.4,12.8-12.2,21.2c-1.8,8.3-1.6,16.6-1.1,25c0.1,0.8,0.4,1.3,1.2,1.4c0.7,0.1,1.2-0.3,1.5-1c0.2-0.5,0.4-0.9,0.6-1.4
				c2.3-4.8,5.3-8.9,10.2-11.4c3.8-2,7.3-1,9.5,2.7c0.4,0.7,0.8,1.4,1.1,2.2c0.3,0.7,0.6,1.3,1.4,1.3c0.7,0,1.1-0.5,1.4-1.1
				c1-2.1,2.4-4,4.2-5.5c0.7-0.6,1.4-1.2,2.1-1.7l-0.1-0.1c0,0,6-4.8,12.8-2.9c0.2-0.6,0.4-1.1,0.7-1.6c-0.1,0-0.2-0.1-0.3-0.1
				c-3-1.8-6.1-1.5-9.2-0.4c-4.4,1.6-8,4.3-10.7,8.1c-0.9-1.1-0.8-2.6-1-3.9c-1.4-8.8-2-17.7-1.7-27.1c4.3,11.7,13,16.8,24.4,18.4
				c0.2-0.8,0.4-1.6,0.5-2.4c0.2-1.2,0.4-2.3,0.6-3.3c-5.3-0.2-9.4-2.1-12.1-3.8C59.3,93.8,57,91.5,55.3,88.4z M48.2,115.5
				c-3.2-2.9-6.8-2.8-10.5-1.1c-3.9,1.8-6.7,4.8-9.1,8.2c-0.2,0.3-0.3,0.6-0.6,0.8c-0.7,0.4-0.2-0.3-0.4-0.4c0,0,0,0,0,0
				c0.3-1.7,0.5-3.3,0.8-4.9c0.8-6,1.9-11.9,4.1-17.6c2.6-6.5,6.6-11.8,12.9-15.1c1.2-0.6,1.4-0.3,1.2,0.8c-0.4,3.6-0.1,7.3,0,10.9
				c0.1,5.6,0.7,11.2,1.6,16.8C48.4,114.3,48.8,115,48.2,115.5z"/>
		</g>
		<g id="XMLID_3210_">
			<path id="XMLID_3214_" class="st5" d="M142,69c-0.3-5.3-2.5-9.9-5.3-14.3c-1.8,1-3.5,1.8-5.6,1.8c-1.1,0-2-0.3-2.5-1.3
				c-0.7,0.1-1.4,0.2-2,0.3c-0.4,0.6,0.4,1.4-0.5,1.9c-0.9,0.4-1.9,0.6-2.8,0.5c-1-0.1-0.6-1.2-1-1.7c0,0-0.1-0.1-0.1-0.1
				c-0.6-0.1-1.1,0.4-1.7,0c-0.6,0.5-0.4,1.1-0.4,1.7c-0.1,2.4-0.7,4.6-1.9,6.7c-3.8,6.6-11.7,8.1-17.4,3.4
				c-1.5-1.2-2.5-2.8-3.3-4.5c-0.2-0.4-0.4-1.1-0.9-1.1c-0.7,0-0.7,0.8-0.9,1.3c-0.4,1.2-1.1,2.3-1.8,3.3c-3,4-7.7,5.7-12.2,4.4
				c-4.1-1.2-6.6-4.1-8.1-7.9c-0.7-1.9-1.4-2.1-3.1-1.1c-0.3,0.5-0.6,1-0.8,1.5c-1.9,3.8-5.9,15.3-3.1,38.7c0.1,0.4,0.2,0.7,0.2,1.2
				c0,0.2,0,0.5,0,0.7c0.3,2.4,0.7,4.8,1.2,7.4c0,0.4,0,0.8,0,1.2c-0.4,0.5-0.4,1-0.3,1.6c0.3,2.6,0.3,5.3,0,7.9
				c-0.1,0.6-0.1,1.2,0.3,1.7c0,0.5,0.1,1-0.2,1.4c-0.4,0.3-0.4,0.8-0.4,1.3c-0.8,6.6-2.4,12.9-6.3,18.4c-0.3,0.4-0.5,0.8-0.6,1.3
				c-0.3,0.4-0.7,0.8-1,1.2c-0.4,0.4-0.6,0.8-0.9,1.2c-1.3,1.9-3.1,3-5.3,3.5c-1,0.2-1.8,0.2-2.5-0.5c-1.3,0.1-2.6,0-3.8-0.3
				c-0.5,0.5-0.2,1-0.1,1.4c0.3,1-0.2,1.5-1.2,1.5c-2.3,0.1-4.4-0.2-6.4-1.4c-1.5-0.9-1.5-1.2-0.3-2.5c0.7-0.8,1.8-1.3,2.1-2.5
				c-1.2-1.5-2.4-3-3.7-4.6c-0.5,0.2-0.6,0.8-0.8,1.2c-0.4,1-0.9,2-1.3,2.9c-0.3,0.6-0.8,0.8-1.5,0.5c-1.9-0.9-3.3-2.3-3.9-4.3
				c-0.3-0.9,0-1.3,0.8-1.5c1.4-0.3,2.8-0.7,4.3-0.5c0.4,0.1,0.9,0.2,1-0.4c-1.9-2.9-4.3-5.3-7.5-6.8c-0.5,0.4-0.5,1.1-0.6,1.6
				c-0.2,0.9-0.4,1.8-0.8,2.7c-0.2,0.4-0.3,0.7-0.9,0.6c-1.9-0.6-3.5-1.7-4.5-3.5c-0.4-0.7-0.2-1.2,0.6-1.5c0.7-0.3,1.5-0.3,1.9-1
				c-2.2-0.5-4.4-0.3-6.6,0c-1.9-0.1-3.6,0.5-5,1.7c-1.9,1-3.6,2.3-5.1,3.7c-1.5,0.9-2.3,2.3-2.9,3.9c-0.2,0.4-0.4,0.8-0.6,1.3
				c-1.8,4.3-1.8,8.5,0.6,12.6c1.5,2.4,3.7,3.9,6.8,3.8c-0.1-0.3-0.1-0.4-0.2-0.6c-1.2-3,0-6.1,2.8-7.6c1.9-1,3.9-0.7,5.3,0.9
				c0.7,0.7,1.2,1.6,1.6,2.5c0.9,2,1.8,4,2.6,6c3.8,10,10.7,16.7,20.9,20c3.3,1.1,6.7,1.6,10.1,2.1l-4.9,7.9c-0.4,0.5-0.1,1,0.5,1.3
				c0.4,0.2,0.8,0.3,1.2,0.4c7.3,1.7,14.7,1.7,22.1,0.7c1.1-0.1,2.1-0.4,3.1-0.8c1.5-0.6,1.8-1.2,1-2.7c-1.7-3.4-4.8-5.1-8.7-4.7
				c-0.2,0-0.4,0.1-0.6,0.1c0.2,0,0.5-0.1,0.7-0.2c2.3-0.9,4.6-1.9,6.8-3c0.5-0.3,0.9-0.6,1.4-0.9c4.8-2.9,8.9-6.5,11.2-11.7
				c2.9-6.4,2.8-12.8-1-18.8c-0.7-1.1-0.9-2-0.4-3.2c2-4.9,3.3-10,3.9-15.3c0.1-1.2,0.7-2.1,1.5-2.9c1.7-1.7,3.4-3.4,5.1-5.2
				c0.6-0.6,1.2-0.8,2-0.6c2.4,0.6,2.8,0.1,2-2.2c-0.3-0.8-0.1-1,0.7-0.9c0.8,0.1,1.6,0.1,2.4-0.1c1.3-0.3,1.5-1.1,0.7-2.1
				c-0.5-0.6-1.1-1.1-1.7-1.8c0.9,0.1,1.8,0,2.6-0.3c1.2-0.3,1.3-0.8,0.5-1.6c-1.8-1.6-3.5-3.2-5.3-4.7c-1.3-1.1-1.6-1.1-2.9-0.1
				c-1.7,1.3-3.5,2.5-5.3,3.7c-0.7,0.5-1.1,0.4-1.7-0.2c-0.9-1-1.6-2.1-1.8-3.5c-1-5-2.6-9.9-4.6-14.5c0.6,0.6,1.4,1.2,2.2,1.7
				c3.6,2.2,7.6,3.6,11.6,4.6c0.6,0.2,1.2,0,1.8,0c2,0.4,3.9,0.7,6,0.7c5.9,0,11.6-1.1,16.6-4.5c1.8-1.2,3.2-2.8,3.9-5
				c0.4-1.1,0.2-1.7-1-2c-3.7-1.1-7.1-2.8-10.2-5.1c-0.7-0.6-1.5-1.1-2.1-2.1c1.9,0.2,3.7,0.4,5.5,0.5c0.5,0.4,1.1,0.3,1.7,0.4
				c1.6,0.3,2.9-0.6,4.4-0.7c3.2-0.3,6.3-1,9.3-2.3C139.7,79.5,142.4,75.1,142,69z"/>
			<path id="XMLID_3211_" class="st5" d="M117.3,153.8c-4.3,8.6-11,14.8-19.1,19.8c-2.3,1.4-4.7,2.4-6.9,3.8
				c-0.3,0.3-0.5,0.7-0.6,1.1c-0.1,0.3-0.2,0.5-0.2,0.8l-4.8,9.4c0.6,0.2,1,0.4,1.5,0.5c6.4,1.5,12.8,1.6,19.3,0.4
				c3.2-0.6,3.2-0.8,1.6-3.5c-1.9-2.3-4.5-2.8-7.4-2.6c0.4-0.3,0.8-0.5,1.2-0.7c4.5-2.1,8.7-4.6,12.2-8.2c6.1-6.2,7.5-14.5,3.7-21.5
				C117.6,153.2,117.4,153.6,117.3,153.8z"/>
		</g>
		<path id="XMLID_3209_" class="st3" d="M69.6,64.7c-1.3,3.1-2.5,6.2-3.1,9.5c-2-1.8-3.5-3.8-4.5-6.3c-0.4-1-0.2-1.5,0.8-1.9
			C65,65.3,67.3,64.8,69.6,64.7z"/>
		<path id="XMLID_3208_" class="st6" d="M119.1,50.4c-2.1-4.4-5.5-7.2-10.5-7.4c-4.4-0.2-7.8,1.8-10.3,5.4c-0.9,1.3-1.5,2.8-2.1,4.5
			c-0.3-0.6-0.5-1.1-0.7-1.5c-3.1-6.6-10.3-9.2-16.3-5.9c-4.3,2.4-6.4,6.2-6.9,11C72.2,57.6,71.9,58,71,58l-9.1-0.9
			c-0.8-0.1-1.4,0.5-1.4,1.3v3.9c0,0.8,0.7,1.4,1.5,1.3l8.7-1.4l0-0.1c0.2,0,0.3,0,0.5-0.1c1.1-0.4,1.6,0,1.9,1.1
			c0.2,0.8,0.6,1.6,1,2.3c4,7.3,13,8.7,18.7,3c1.7-1.7,2.9-3.8,3.7-6.3c0.5,1,1,1.9,1.4,2.8c4.3,7.4,14.2,8.1,19.5,1.3
			c2.4-3,3.2-6.4,3.1-10.2C120.4,54.1,119.9,52.2,119.1,50.4z"/>
		<path id="XMLID_3207_" class="st3" d="M66.1,87.3c0.2,2.3-0.2,4.8,0,7.5c-1.6-1.8-2.9-3.3-4-5C63.2,89.1,64.8,87.8,66.1,87.3z"/>
		<path id="XMLID_3206_" class="st4" d="M66.6,103.5c0-0.4-0.1-0.8-0.2-1.2c0.1,0.6,0.2,1.2,0.2,1.9C66.6,104,66.6,103.8,66.6,103.5
			z"/>
		<path id="XMLID_3203_" class="st5" d="M115.1,126.8c-1-0.6-1.4-1.7-2-2.6c-2.8-4.4-5.8-8.7-8.4-13.3c3.3,0.9,6.5,1.8,9.8,2.8
			c0.8,0.2,1.3,0.2,1.9-0.5c1.7-1.8,3.5-3.5,5.2-5.2c0.3-0.3,0.6-0.6,1.1-0.3c2.6,1.6,5.1,3.2,7.9,4.9c-1.4,0.9-2.7,1.1-4.3,1.2
			c1.4,1,2.6,1.9,3.7,2.8c-1.1,1.3-2.4,1.6-5,1.2c0.6,1,1,1.8,1.6,2.6c0.5,0.7,0.2,0.9-0.5,1.1c-0.8,0.2-1.6,0-2.3-0.2
			c-0.7-0.3-1.2-0.1-1.8,0.3C119.7,123.3,117.4,125.1,115.1,126.8z"/>
		<path id="XMLID_3202_" class="st3" d="M67.6,125.4c-0.6,7.5-2.4,14.5-7,20.6c-0.1,0.1-0.2,0.2-0.3,0.3c-1.7-1.6-3.2-3.4-4.1-5.6
			c-0.4-1-0.3-1.6,0.9-2c2-0.7,4.1-1.1,6.2-1.4c0.4,0,0.9,0.1,1.4-0.4c-1.6-1.5-3.2-3-4.4-4.8c-0.7-1.1-1.3-2.2-1.7-3.3
			c-0.4-0.9-0.1-1.2,0.7-1.6C61.9,126.3,64.7,125.7,67.6,125.4z"/>
		<path id="XMLID_3201_" class="st3" d="M74.8,43.7c0.6-2.6,2.2-4.3,4.2-5.6c3.2-2.2,6.7-3.4,10.6-3.3c0.8,0,1.2,0.2,1.3,1
			c0.2,1.6,0.5,3.1,0.7,4.7c0.1,0.8,0.1,1-0.9,0.8C85.2,40.4,79.9,41.1,74.8,43.7z"/>
		<path id="XMLID_3200_" class="st3" d="M101.7,41.1c0-1.7,0-3.3,0-4.9c0-0.5,0.1-0.8,0.6-0.9c4.4-1.7,11.4,0.6,12.7,6.2
			C110.6,39.7,106.2,39.1,101.7,41.1z"/>
		<path id="XMLID_3199_" class="st3" d="M67.8,112.8c0.4,3.7,0.4,7.5,0,11.2c-2.7-1.3-5.1-3-7-5.4c-0.9-1.1-0.8-1.7,0.3-2.5
			C63.2,114.8,65.4,113.6,67.8,112.8z"/>
		<path id="XMLID_3198_" class="st3" d="M46.6,151.5c0.1,0.5,0.1,1,0.3,1.5c0.6,1.4-0.1,1.7-1.3,1.8c-2.9,0.2-5.5-0.3-7.8-2.2
			c-0.7-0.6-0.7-1-0.1-1.6c1-1,2.1-2,3.1-3c0.3-0.2,0.6-0.3,0.9-0.5c2.9-1.5,2.6-1.7,4.1,1.3C46.1,149.7,46.3,150.6,46.6,151.5z"/>
		<path id="XMLID_3197_" class="st3" d="M59.2,147.6c0,1.3-0.9,2-1.7,2.7c-1.5,1.6-3.5,2.3-5.7,2.6c-1,0.1-1.1-0.5-1.4-1.1
			c-0.3-2-0.5-4,0-6.1c0.2-1,0.6-1.4,1.8-1.1C54.8,145.2,57,146.4,59.2,147.6z"/>
		<path id="XMLID_3196_" class="st3" d="M136.7,54.7c-1.1,1.6-2.9,1.7-4.5,2.1c-0.7,0.2-1.4,0.1-2.1,0.1c-1,0-1.7-0.5-1.5-1.6
			c0.5-2.1,0.9-4.1,1.5-6.2c0.5-1.7,1-1.8,2.2-0.5C134.1,50.3,135.7,52.4,136.7,54.7z"/>
		<path id="XMLID_3195_" class="st3" d="M37.1,143.5c-0.6,1.6-1.1,3.3-2.1,4.7c-0.3,0.4-0.5,0.9-1.2,0.6c-2.4-1.1-4.1-2.7-4.8-5.3
			c-0.2-0.9,0-1.3,0.9-1.5c1.9-0.5,3.8-0.7,5.8-0.5C36.9,141.6,37.3,142.3,37.1,143.5z"/>
		<path id="XMLID_3194_" class="st3" d="M66.1,76.2c-0.3,3.3-0.7,6.5-0.6,9.8c-2.3-0.9-4.2-2.4-5.9-4.1c-1-1-0.8-1.6,0.3-2.4
			C61.8,78.1,63.9,77,66.1,76.2z"/>
		<path id="XMLID_3193_" class="st3" d="M28.1,134.7c-0.2,1.6-0.5,3.2-1.2,4.7c-0.2,0.4-0.3,0.8-1,0.6c-2.2-0.7-4-1.8-5.1-4
			c-0.4-0.9-0.4-1.5,0.7-1.7c0.8-0.2,1.5-0.5,2.2-0.7c0.9-0.1,1.8-0.2,2.7-0.3C27.7,133.2,28.2,133.5,28.1,134.7z"/>
		<path id="XMLID_3192_" class="st3" d="M126.6,55.5c0.8,1.8,0.6,2-1.2,2.5c-0.2,0.1-0.4,0.2-0.7,0.2c-2.2,0.4-2.6,0.1-2.5-2.1
			c0.3-1,0.6-1.9,0.9-2.9c0.3-0.9,0.8-1,1.4-0.3C125.1,53.7,125.8,54.6,126.6,55.5z"/>
		<path id="XMLID_3191_" class="st3" d="M118.8,84.6c2-0.1,4.1-0.2,6.1-0.2c-1.6,0.1-1.8,1.6-2.5,2.6c-0.3,0.5-0.5,1.2-1.2,1.2
			c-0.7,0-0.9-0.7-1.2-1.2C119.5,86.2,119.1,85.4,118.8,84.6z"/>
		<path id="XMLID_3190_" class="st3" d="M17.2,133.5c-1.7,0.4-3.4,1-5,1.7c1-4.4,1.3-4,4.8-1.9C17.1,133.3,17.2,133.4,17.2,133.5z"
			/>
		<path id="XMLID_3189_" class="st3" d="M7.1,138.9c-1,1.3-1.9,2.6-2.9,3.9c-0.1-0.2-0.1-0.4-0.2-0.5c-0.4-1.1-1.1-2.6-0.2-3.4
			C4.5,138.1,5.9,138.6,7.1,138.9z"/>
		<path id="XMLID_3188_" class="st6" d="M115.7,94.7c-3.3,0.6-6.6,0-9.8-0.9c-5.5-1.5-10.2-4.2-14.1-8.4c0.4-0.4,0.9-0.4,1.4-0.4
			c2.1,0.3,4.3,0.3,6.4,0.8c0.2,0,0.5,0.1,0.6,0.3c0.7,1,1.4,0.9,2.3,0.3c1.3,0.8,2.7,1.1,4.1,1.7c3,1.2,5.6,3,8.1,5
			C115.2,93.6,115.8,93.9,115.7,94.7z"/>
		<path id="XMLID_3187_" class="st3" d="M115.7,94.7c-2.4-2.6-5.3-4.4-8.5-5.9c-1.2-0.5-2.5-1-3.8-1.4c-0.4-0.1-0.8-0.3-0.9-0.8
			c0-1.3,0.8-2.2,1.7-3.1c1.5-0.3,2.4,0.2,3.2,1.6c1.7,2.7,4.4,4.3,7.1,5.9c1.9,1.1,3.9,2,6.3,2.7C119,94.3,117.4,94.7,115.7,94.7z"
			/>
		<path id="XMLID_3186_" class="st3" d="M100.1,86.2c-2-0.2-4.1-0.3-6.1-0.6c-0.7-0.1-1.5-0.2-2.2-0.1c-2.1-1.9-3.7-4.3-4.8-7
			c1.3,0.6,2.5,1.2,3.8,1.8c1.9,0.8,3.9,1.4,5.9,1.9c0.5,0.1,1.1,0.1,1.5,0.7C99.3,83.7,100,84.8,100.1,86.2z"/>
		<path id="XMLID_3185_" class="st7" d="M100.1,86.2c-0.6-1.1-1.3-2.3-1.9-3.4c1.6-0.3,3.1,0.5,4.7,0.5c0.4,0,0.8,0.1,1.2,0.2
			c-0.6,1-1.1,2-1.7,3.1C101.4,88.1,101.3,88.1,100.1,86.2z"/>
		<path id="XMLID_3184_" class="st8" d="M93.7,57.7c0,3.2-0.9,5.7-2.9,7.8c-3.7,3.9-9.4,3.7-12.9-0.4c-3.5-4.1-3.4-10.7,0.2-14.6
			c3.8-4.2,9.9-3.9,13.3,0.6C93,53.2,93.8,55.5,93.7,57.7z"/>
		<path id="XMLID_3183_" class="st8" d="M108.1,67c-3-0.1-5.3-1.5-7-3.9c-2.6-3.8-2.4-9.3,0.5-12.9c3.4-4.2,9.4-4.3,13-0.1
			c4.3,5,2.8,13.3-2.8,16.1C110.5,66.7,109.3,67,108.1,67z"/>
		<path id="XMLID_3182_" class="st6" d="M84.9,58.1c0,0.1,0.1,0.2,0.1,0.3c0,1.8-0.9,3.2-2.2,3.4c-1.1,0.2-2.3-0.8-2.6-2.2
			c-0.5-1.8,0.3-3.9,1.6-4.4c0.4-0.1,0.8-0.3,1.2,0c0.3,0.3-0.1,0.6-0.1,0.9C82.6,57.7,83.4,58.4,84.9,58.1z"/>
		<path id="XMLID_3181_" class="st6" d="M105.3,55.2c-0.5,1.1-0.7,2.1,0,3c0.5,0.7,1.2,0.4,1.9,0.1c0,0.1,0.1,0.2,0.1,0.3
			c-0.1,1.9-1.1,3.2-2.4,3.3c-1.3,0-2.5-1.5-2.5-3.3C102.3,56.5,103.4,55.2,105.3,55.2z"/>
	</g>
	<g id="XMLID_3176_">
		<path id="XMLID_3179_" class="st9" d="M166.9,175.1h-46v4c0,6,10.3,10.8,23,10.8s23-4.8,23-10.8V175.1"/>
		<ellipse id="XMLID_3178_" class="st10" cx="144" cy="175.1" rx="23" ry="10.8"/>
		<path id="XMLID_3177_" class="st3" d="M144,165.3c12,0,21.8,4.4,22.4,10c0-0.2,0-0.4,0-0.5c0-5.8-10-10.6-22.4-10.6
			c-12.4,0-22.4,4.7-22.4,10.6c0,0.2,0,0.4,0,0.5C122.2,169.8,132,165.3,144,165.3z"/>
	</g>
	<g id="XMLID_3172_">
		<path id="XMLID_3175_" class="st9" d="M189.6,131.4l-40.9,21l1.8,3.5c2.7,5.3,14.1,4.9,25.4-0.8c11.3-5.8,18.2-14.8,15.5-20.1
			L189.6,131.4"/>
		
			<ellipse id="XMLID_3174_" transform="matrix(0.8899 -0.4562 0.4562 0.8899 -46.0821 92.7716)" class="st10" cx="169.1" cy="141.8" rx="23" ry="10.8"/>
		<path id="XMLID_3173_" class="st3" d="M164.7,133.2c10.7-5.5,21.4-6,24.5-1.3c-0.1-0.2-0.1-0.3-0.2-0.5
			c-2.7-5.2-13.7-4.8-24.7,0.8c-11,5.6-17.8,14.4-15.1,19.6c0.1,0.2,0.2,0.3,0.3,0.5C147.3,147,154,138.6,164.7,133.2z"/>
	</g>
	<g id="XMLID_3168_">
		<path id="XMLID_3171_" class="st9" d="M158.7,125.3l-41.8-19.1l-1.7,3.6c-2.5,5.4,4.9,14.1,16.4,19.4c11.5,5.3,22.9,5.1,25.4-0.3
			L158.7,125.3"/>
		
			<ellipse id="XMLID_3170_" transform="matrix(0.9095 0.4157 -0.4157 0.9095 60.5587 -46.8116)" class="st10" cx="137.8" cy="115.7" rx="23" ry="10.8"/>
		<path id="XMLID_3169_" class="st3" d="M141.9,106.8c10.9,5,18,13.1,16.2,18.4c0.1-0.2,0.2-0.3,0.3-0.5c2.4-5.3-4.7-13.8-16-18.9
			s-22.3-5-24.7,0.3c-0.1,0.2-0.1,0.3-0.2,0.5C120.2,101.8,131,101.8,141.9,106.8z"/>
	</g>
	<path id="XMLID_3165_" class="st11" d="M175,106.1L175,106.1c0.3,1.8,1.7,3.3,3.5,3.5l0,0l0,0c-1.8,0.3-3.3,1.7-3.5,3.5v0v0
		c-0.3-1.8-1.7-3.3-3.5-3.5h0h0C173.3,109.4,174.8,107.9,175,106.1L175,106.1z"/>
	<path id="XMLID_3162_" class="st11" d="M161.5,103.2L161.5,103.2c0.4,2.7,2.5,4.8,5.1,5.1l0,0l0,0c-2.7,0.4-4.8,2.5-5.1,5.1v0v0
		c-0.4-2.7-2.5-4.8-5.1-5.1h0h0C159.1,108,161.2,105.9,161.5,103.2L161.5,103.2z"/>
	<path id="XMLID_3159_" class="st11" d="M184.2,109L184.2,109c0.5,3.3,3.1,6,6.4,6.4l0,0l0,0c-3.3,0.5-6,3.1-6.4,6.4v0l0,0
		c-0.5-3.3-3.1-6-6.4-6.4h0l0,0C181.1,114.9,183.7,112.3,184.2,109L184.2,109z"/>
	<path id="XMLID_3156_" class="st11" d="M129,149.1L129,149.1c0.5,3.4,3.2,6.1,6.6,6.6l0,0l0,0c-3.4,0.5-6.1,3.2-6.6,6.6l0,0v0
		c-0.5-3.4-3.2-6.1-6.6-6.6h0h0C125.8,155.2,128.5,152.5,129,149.1L129,149.1z"/>
</g>
</svg>

