<?xml version="1.0" encoding="utf-8"?>
<!-- Generator: Adobe Illustrator 19.0.0, SVG Export Plug-In . SVG Version: 6.00 Build 0)  -->
<svg version="1.1" id="Layer_1" xmlns="http://www.w3.org/2000/svg" xmlns:xlink="http://www.w3.org/1999/xlink" width="300" height="170"
	 viewBox="0 0 300 170" style="enable-background:new 0 0 300 170;" xml:space="preserve">
<style type="text/css">
	.st0{fill:#DCDEDD;stroke:#666666;stroke-width:1.0298;stroke-miterlimit:10;}
	.st1{fill:#EF5B80;stroke:#6E0E10;stroke-width:1.0903;stroke-miterlimit:10;}
	.st2{fill:#ED2040;stroke:#6E0E10;stroke-width:1.0903;stroke-miterlimit:10;}
	.st3{fill:#EF5B80;}
	.st4{opacity:0.5;fill:#FF94B8;}
	.st5{fill:#B3B3B3;}
	.st6{fill:#ED2040;stroke:#6E0E10;stroke-width:1.8713;stroke-miterlimit:10;}
	.st7{fill:#EF5B80;stroke:#6E0E10;stroke-width:0.7253;stroke-miterlimit:10;}
	.st8{fill:#ED2040;stroke:#6E0E10;stroke-width:0.7253;stroke-miterlimit:10;}
</style>
<g id="XMLID_2_">
	<ellipse id="XMLID_3042_" class="st0" cx="251.3" cy="103.5" rx="25.6" ry="7.8"/>
	<g id="XMLID_3038_">
		<path id="XMLID_3041_" class="st1" d="M273.1,94.2h-42.4v3.7c0,5.5,9.5,10,21.2,10c11.7,0,21.2-4.5,21.2-10V94.2"/>
		<ellipse id="XMLID_3040_" class="st2" cx="251.9" cy="94.2" rx="21.2" ry="10"/>
		<path id="XMLID_3039_" class="st3" d="M251.9,85.2c11,0,20.1,4.1,20.6,9.2c0-0.2,0-0.3,0-0.5c0-5.4-9.2-9.7-20.6-9.7
			s-20.6,4.4-20.6,9.7c0,0.2,0,0.3,0,0.5C231.8,89.3,240.8,85.2,251.9,85.2z"/>
	</g>
	<g id="XMLID_3034_">
		<path id="XMLID_3037_" class="st1" d="M285.2,86l-42.3-0.9l-0.1,3.7c-0.1,5.5,9.3,10.2,21,10.4c11.7,0.3,21.3-4,21.4-9.5L285.2,86
			"/>
		
			<ellipse id="XMLID_3036_" transform="matrix(0.9998 2.141841e-002 -2.141841e-002 0.9998 1.8929 -5.6361)" class="st2" cx="264.1" cy="85.5" rx="21.2" ry="10"/>
		<path id="XMLID_3035_" class="st3" d="M264.3,76.6c11,0.2,20,4.5,20.4,9.7c0-0.2,0-0.3,0-0.5c0.1-5.4-9-9.9-20.4-10.2
			c-11.4-0.2-20.7,3.9-20.8,9.3c0,0.2,0,0.3,0,0.5C244.1,80.2,253.2,76.3,264.3,76.6z"/>
	</g>
	<path id="XMLID_3031_" class="st4" d="M225.4,33L225.4,33c0.2,1.7,1.6,3,3.2,3.2l0,0l0,0c-1.7,0.2-3,1.6-3.2,3.2l0,0v0
		c-0.2-1.7-1.6-3-3.2-3.2l0,0l0,0C223.8,36,225.2,34.7,225.4,33L225.4,33z"/>
	<path id="XMLID_3028_" class="st4" d="M249,43.8L249,43.8c0.3,2.5,2.3,4.4,4.7,4.7h0l0,0c-2.5,0.3-4.4,2.3-4.7,4.7v0v0
		c-0.3-2.5-2.3-4.4-4.7-4.7v0l0,0C246.7,48.2,248.6,46.3,249,43.8L249,43.8z"/>
	<path id="XMLID_3025_" class="st4" d="M267.2,58.6L267.2,58.6c0.4,3.1,2.8,5.5,5.9,5.9l0,0v0c-3.1,0.4-5.5,2.8-5.9,5.9v0v0
		c-0.4-3.1-2.8-5.5-5.9-5.9v0l0,0C264.4,64.1,266.8,61.7,267.2,58.6L267.2,58.6z"/>
	<path id="XMLID_3019_" class="st4" d="M215.9,4.7L215.9,4.7c0.4,3.1,2.9,5.6,6.1,6.1l0,0l0,0c-3.1,0.4-5.6,2.9-6.1,6.1v0v0
		c-0.4-3.1-2.9-5.6-6.1-6.1v0v0C213,10.3,215.4,7.8,215.9,4.7L215.9,4.7z"/>
	<g id="XMLID_3015_">
		<path id="XMLID_3018_" class="st1" d="M265,75.6l-42.4,0l0,3.7c0,5.5,9.5,10,21.2,10c11.7,0,21.2-4.5,21.2-10L265,75.6"/>
		
			<ellipse id="XMLID_3017_" transform="matrix(1 7.003207e-004 -7.003207e-004 1 5.300336e-002 -0.1708)" class="st2" cx="243.9" cy="75.6" rx="21.2" ry="10"/>
		<path id="XMLID_3016_" class="st3" d="M243.9,66.6c11,0,20,4.1,20.6,9.2c0-0.2,0-0.3,0-0.5c0-5.4-9.2-9.7-20.6-9.7
			s-20.6,4.3-20.6,9.7c0,0.2,0,0.3,0,0.5C223.8,70.7,232.8,66.6,243.9,66.6z"/>
	</g>
	<g id="XMLID_3011_">
		<path id="XMLID_3014_" class="st1" d="M271.1,29.4l-39.7,14.8l1.3,3.4c1.9,5.2,12.4,6,23.3,2s18.3-11.6,16.4-16.7L271.1,29.4"/>
		
			<ellipse id="XMLID_3013_" transform="matrix(0.937 -0.3492 0.3492 0.937 2.9663 90.0547)" class="st2" cx="251.2" cy="36.8" rx="21.2" ry="10"/>
		<path id="XMLID_3012_" class="st3" d="M248.1,28.4c10.3-3.9,20.2-3.2,22.5,1.5c0-0.2-0.1-0.3-0.1-0.5c-1.9-5-12-5.9-22.7-1.9
			c-10.7,4-17.8,11.3-15.9,16.3c0.1,0.2,0.1,0.3,0.2,0.5C230.7,39.2,237.8,32.2,248.1,28.4z"/>
	</g>
	<g id="XMLID_2994_">
		<path id="XMLID_3001_" class="st1" d="M228,57.2l-38.5-17.6l-1.5,3.3c-2.3,5,4.5,13,15.1,17.9s21.1,4.7,23.4-0.3L228,57.2"/>
		
			<ellipse id="XMLID_2997_" transform="matrix(0.9095 0.4157 -0.4157 0.9095 39.0194 -82.3722)" class="st2" cx="208.7" cy="48.4" rx="21.2" ry="10"/>
		<path id="XMLID_2995_" class="st3" d="M212.5,40.3c10,4.6,16.5,12.1,14.9,17c0.1-0.1,0.2-0.3,0.2-0.4c2.2-4.9-4.4-12.7-14.7-17.4
			c-10.4-4.7-20.6-4.6-22.8,0.3c-0.1,0.2-0.1,0.3-0.2,0.5C192.5,35.6,202.4,35.7,212.5,40.3z"/>
	</g>
	<g id="XMLID_2933_">
		<path id="XMLID_2937_" class="st1" d="M204.5,23.3L165.9,5.7L164.4,9c-2.3,5,4.5,13,15.1,17.9c10.6,4.9,21.1,4.7,23.4-0.3
			L204.5,23.3"/>
		
			<ellipse id="XMLID_2936_" transform="matrix(0.9095 0.4157 -0.4157 0.9095 22.7642 -75.673)" class="st2" cx="185.2" cy="14.5" rx="21.2" ry="10"/>
		<path id="XMLID_2934_" class="st3" d="M188.9,6.3c10,4.6,16.5,12.1,14.9,17c0.1-0.1,0.2-0.3,0.2-0.4c2.2-4.9-4.4-12.7-14.7-17.4
			s-20.6-4.6-22.8,0.3c-0.1,0.2-0.1,0.3-0.2,0.5C169,1.7,178.9,1.7,188.9,6.3z"/>
	</g>
</g>
<path id="XMLID_2952_" class="st4" d="M166.5,22.8L166.5,22.8c-0.3,1.9-1.8,3.4-3.7,3.7l0,0v0c1.9,0.3,3.4,1.8,3.7,3.7v0v0
	c0.3-1.9,1.8-3.4,3.7-3.7v0l0,0C168.3,26.2,166.8,24.7,166.5,22.8L166.5,22.8z"/>
<g id="XMLID_1_">
	<ellipse id="XMLID_3097_" class="st5" cx="128.3" cy="99.8" rx="13.6" ry="3.2"/>
	<path id="XMLID_3094_" class="st4" d="M139.8,29.8L139.8,29.8c-0.5,3.5-3.3,6.3-6.8,6.8v0h0c3.5,0.5,6.3,3.3,6.8,6.8v0v0
		c0.5-3.5,3.3-6.3,6.8-6.8h0l0,0C143,36.1,140.3,33.3,139.8,29.8L139.8,29.8z"/>
	<path id="XMLID_3089_" class="st4" d="M47.9,58.2L47.9,58.2c-0.3,2-1.8,3.5-3.8,3.8h0h0c2,0.3,3.5,1.8,3.8,3.8v0h0
		c0.3-2,1.8-3.5,3.8-3.8h0h0C49.7,61.7,48.2,60.2,47.9,58.2L47.9,58.2z"/>
	<path id="XMLID_3086_" class="st4" d="M129,39.9L129,39.9c-0.3,2-1.8,3.5-3.8,3.8l0,0l0,0c2,0.3,3.5,1.8,3.8,3.8v0v0
		c0.3-2,1.8-3.5,3.8-3.8l0,0l0,0C130.8,43.5,129.2,41.9,129,39.9L129,39.9z"/>
	<path id="XMLID_3085_" class="st6" d="M60,63.7L118,48.3l37.9,8.9c0.3,0.1,0.3,0.5,0,0.6L94.7,76.5L60,64.1
		C59.9,64,59.9,63.8,60,63.7z"/>
	<g id="XMLID_3008_">
		<path id="XMLID_3084_" class="st6" d="M57.9,63.5L117,48.4l13-21.9c0,0-6.3-11.4-20.5-9.3l-45.1,9.1
			C64.4,26.3,39.3,27.2,57.9,63.5z"/>
		<polyline id="XMLID_3083_" class="st6" points="57.9,63.5 81.5,34.8 130,26.5 		"/>
		<path id="XMLID_3010_" class="st6" d="M117,48.4c0,0-14.2-6.3-16.4-17.1"/>
		<path id="XMLID_3009_" class="st6" d="M81.5,34.8c0,0-9-9.4-20.5-7.8"/>
	</g>
	<g id="XMLID_3004_">
		<path id="XMLID_3007_" class="st7" d="M122.7,62.7L148.3,51l1,2.2c1.5,3.3-3,8.7-10.1,11.9c-7.1,3.2-14,3.2-15.6-0.2L122.7,62.7"
			/>
		
			<ellipse id="XMLID_3006_" transform="matrix(-0.9095 0.4157 -0.4157 -0.9095 282.3146 52.2558)" class="st8" cx="135.5" cy="56.9" rx="14.1" ry="6.6"/>
		<path id="XMLID_3005_" class="st3" d="M133,51.4c-6.7,3.1-11,8-9.9,11.3c-0.1-0.1-0.1-0.2-0.2-0.3c-1.5-3.2,2.9-8.4,9.8-11.6
			c6.9-3.1,13.7-3.1,15.2,0.2c0,0.1,0.1,0.2,0.1,0.3C146.2,48.3,139.7,48.4,133,51.4z"/>
	</g>
	<g id="XMLID_2998_">
		<path id="XMLID_3003_" class="st7" d="M104.3,54.1l28.2,0.5l0,2.4c-0.1,3.7-6.4,6.5-14.2,6.4c-7.8-0.1-14-3.2-14-6.9L104.3,54.1"
			/>
		
			<ellipse id="XMLID_3000_" transform="matrix(-0.9999 -1.620498e-002 1.620498e-002 -0.9999 235.8922 110.6467)" class="st8" cx="118.4" cy="54.4" rx="14.1" ry="6.6"/>
		<path id="XMLID_2999_" class="st3" d="M118.5,48.4c-7.3-0.1-13.4,2.5-13.8,5.9c0-0.1,0-0.2,0-0.3c0.1-3.6,6.2-6.4,13.8-6.2
			c7.6,0.1,13.7,3.1,13.6,6.7c0,0.1,0,0.2,0,0.3C131.8,51.3,125.8,48.5,118.5,48.4z"/>
	</g>
	<g id="XMLID_2991_">
		<path id="XMLID_2996_" class="st7" d="M107.6,62.7l28.1,2.5l-0.2,2.4c-0.3,3.7-6.9,6-14.6,5.3c-7.7-0.7-13.8-4.2-13.4-7.9
			L107.6,62.7"/>
		
			<ellipse id="XMLID_2993_" transform="matrix(-0.9959 -9.047939e-002 9.047939e-002 -0.9959 236.8962 138.754)" class="st8" cx="121.6" cy="64" rx="14.1" ry="6.6"/>
		<path id="XMLID_2992_" class="st3" d="M122.1,58.1c-7.3-0.7-13.5,1.5-14.2,4.9c0-0.1,0-0.2,0-0.3c0.3-3.6,6.7-5.9,14.2-5.2
			c7.5,0.7,13.4,4.1,13.1,7.7c0,0.1,0,0.2,0,0.3C135.2,62,129.4,58.7,122.1,58.1z"/>
	</g>
	<g id="XMLID_2987_">
		<path id="XMLID_2990_" class="st7" d="M86.7,72.1l25.6-11.7l1,2.2c1.5,3.3-3,8.7-10.1,11.9c-7.1,3.2-14,3.2-15.6-0.2L86.7,72.1"/>
		
			<ellipse id="XMLID_2989_" transform="matrix(-0.9095 0.4157 -0.4157 -0.9095 217.6069 85.2093)" class="st8" cx="99.5" cy="66.3" rx="14.1" ry="6.6"/>
		<path id="XMLID_2988_" class="st3" d="M97,60.9c-6.7,3.1-11,8-9.9,11.3C87.1,72,87,71.9,87,71.8c-1.5-3.2,2.9-8.4,9.8-11.6
			c6.9-3.1,13.7-3.1,15.2,0.2c0,0.1,0.1,0.2,0.1,0.3C110.3,57.8,103.7,57.8,97,60.9z"/>
	</g>
	<g id="XMLID_2983_">
		<path id="XMLID_2986_" class="st7" d="M72,66.9l28.2,1.1l-0.1,2.4c-0.1,3.7-6.5,6.4-14.3,6.1s-14-3.5-13.8-7.2L72,66.9"/>
		
			<ellipse id="XMLID_2985_" transform="matrix(-0.9993 -3.732556e-002 3.732556e-002 -0.9993 169.6165 138.0109)" class="st8" cx="86.1" cy="67.4" rx="14.1" ry="6.6"/>
		<path id="XMLID_2984_" class="st3" d="M86.3,61.4c-7.3-0.3-13.4,2.2-13.9,5.6c0-0.1,0-0.2,0-0.3c0.1-3.6,6.4-6.2,14-6
			c7.6,0.3,13.6,3.4,13.5,7c0,0.1,0,0.2,0,0.3C99.5,64.7,93.7,61.7,86.3,61.4z"/>
	</g>
	<g id="XMLID_2976_">
		<path id="XMLID_2982_" class="st7" d="M65.6,68.4l25.6-11.7l1,2.2c1.5,3.3-3,8.7-10.1,11.9c-7.1,3.2-14,3.2-15.6-0.2L65.6,68.4"/>
		
			<ellipse id="XMLID_2981_" transform="matrix(-0.9095 0.4157 -0.4157 -0.9095 175.6995 86.8723)" class="st8" cx="78.4" cy="62.6" rx="14.1" ry="6.6"/>
		<path id="XMLID_2980_" class="st3" d="M75.9,57.1c-6.7,3.1-11,8-9.9,11.3c-0.1-0.1-0.1-0.2-0.2-0.3c-1.5-3.2,2.9-8.4,9.8-11.6
			c6.9-3.1,13.7-3.1,15.2,0.2c0,0.1,0.1,0.2,0.1,0.3C89.2,54.1,82.6,54.1,75.9,57.1z"/>
	</g>
	<g id="XMLID_2967_">
		<path id="XMLID_2975_" class="st7" d="M82.3,52.5l27.3,6.9l-0.6,2.4c-0.9,3.6-7.7,4.9-15.3,3c-7.5-1.9-12.9-6.3-12-9.9L82.3,52.5"
			/>
		
			<ellipse id="XMLID_2974_" transform="matrix(-0.9695 -0.2451 0.2451 -0.9695 175.3254 133.7386)" class="st8" cx="96" cy="56" rx="14.1" ry="6.6"/>
		<path id="XMLID_2973_" class="st3" d="M97.5,50.2c-7.1-1.8-13.6-0.6-14.8,2.6c0-0.1,0-0.2,0.1-0.3c0.9-3.5,7.5-4.8,14.9-2.9
			c7.3,1.9,12.6,6.2,11.7,9.6c0,0.1-0.1,0.2-0.1,0.3C109.7,56.1,104.6,52,97.5,50.2z"/>
	</g>
	<g id="XMLID_2960_">
		<path id="XMLID_2966_" class="st6" d="M156.2,57.9l-2.7,21.9c-0.6,5-3.9,9.3-8.5,11.3l-44.5,19c-3.8,1.6-8.1,1.5-11.8-0.3L60.1,96
			c-1.2-0.6-1.9-1.7-1.9-3l-0.3-28.5c0-0.4,0.3-0.8,0.8-0.9l37.8,13.1l58.9-19.5C155.8,57.1,156.3,57.4,156.2,57.9z"/>
		<line id="XMLID_2963_" class="st6" x1="96.3" y1="76.3" x2="96.3" y2="111"/>
	</g>
	<path id="XMLID_2957_" class="st4" d="M64.7,11.7L64.7,11.7c-0.3,2-1.8,3.5-3.8,3.8l0,0l0,0c2,0.3,3.5,1.8,3.8,3.8v0v0
		c0.3-2,1.8-3.5,3.8-3.8v0v0C66.5,15.3,65,13.7,64.7,11.7L64.7,11.7z"/>
	<g id="XMLID_2948_">
		<path id="XMLID_2951_" class="st7" d="M106.1,66.9l27.8,4.8l-0.4,2.4c-0.6,3.6-7.3,5.5-15,4.1s-13.4-5.3-12.7-8.9L106.1,66.9"/>
		
			<ellipse id="XMLID_2950_" transform="matrix(-0.9853 -0.1707 0.1707 -0.9853 226.2924 158.1007)" class="st8" cx="119.9" cy="69.3" rx="14.1" ry="6.6"/>
		<path id="XMLID_2949_" class="st3" d="M121,63.4c-7.2-1.3-13.6,0.4-14.5,3.7c0-0.1,0-0.2,0-0.3c0.6-3.5,7.2-5.3,14.6-4
			c7.5,1.3,13,5.2,12.4,8.7c0,0.1,0,0.2-0.1,0.3C133.6,68.4,128.2,64.7,121,63.4z"/>
	</g>
	<g id="XMLID_2944_">
		<path id="XMLID_2947_" class="st7" d="M135.1,79.8l23-16.2l1.4,2c2.1,3-1.3,9.1-7.7,13.5c-6.4,4.5-13.2,5.7-15.3,2.7L135.1,79.8"
			/>
		
			<ellipse id="XMLID_2946_" transform="matrix(-0.8169 0.5768 -0.5768 -0.8169 307.6935 45.593)" class="st8" cx="146.6" cy="71.6" rx="14.1" ry="6.6"/>
		<path id="XMLID_2945_" class="st3" d="M143.2,66.8c-6,4.2-9.3,9.9-7.7,12.9c-0.1-0.1-0.1-0.2-0.2-0.3c-2.1-2.9,1.3-8.8,7.5-13.2
			c6.2-4.4,12.9-5.5,14.9-2.6c0.1,0.1,0.1,0.2,0.2,0.3C155.6,61.3,149.2,62.5,143.2,66.8z"/>
	</g>
	<g id="XMLID_2940_">
		<path id="XMLID_2943_" class="st7" d="M117.1,89.6l27.6,5.6l-0.5,2.4c-0.7,3.6-7.5,5.3-15.1,3.7c-7.6-1.5-13.2-5.7-12.5-9.3
			L117.1,89.6"/>
		
			<ellipse id="XMLID_2942_" transform="matrix(-0.9803 -0.1975 0.1975 -0.9803 240.9603 208.6964)" class="st8" cx="130.9" cy="92.3" rx="14.1" ry="6.6"/>
		<path id="XMLID_2941_" class="st3" d="M132.1,86.5c-7.2-1.4-13.6,0-14.6,3.3c0-0.1,0-0.2,0-0.3c0.7-3.5,7.3-5.1,14.7-3.6
			c7.4,1.5,12.9,5.5,12.2,9c0,0.1,0,0.2-0.1,0.3C144.6,91.8,139.3,87.9,132.1,86.5z"/>
	</g>
	<g id="XMLID_2387_">
		<path id="XMLID_2939_" class="st7" d="M109.8,55.3l28.1,2.5l-0.2,2.4c-0.3,3.7-6.9,6-14.6,5.3c-7.7-0.7-13.8-4.2-13.4-7.9
			L109.8,55.3"/>
		
			<ellipse id="XMLID_2938_" transform="matrix(-0.9959 -9.047939e-002 9.047939e-002 -0.9959 242.0444 124.0489)" class="st8" cx="123.8" cy="56.5" rx="14.1" ry="6.6"/>
		<path id="XMLID_2935_" class="st3" d="M124.4,50.6c-7.3-0.7-13.5,1.5-14.2,4.9c0-0.1,0-0.2,0-0.3c0.3-3.6,6.7-5.9,14.2-5.2
			c7.5,0.7,13.4,4.1,13.1,7.7c0,0.1,0,0.2,0,0.3C137.4,54.5,131.7,51.2,124.4,50.6z"/>
	</g>
</g>
</svg>

