<?xml version="1.0" encoding="utf-8"?>
<!-- Generator: Adobe Illustrator 19.0.0, SVG Export Plug-In . SVG Version: 6.00 Build 0)  -->
<svg version="1.1" id="Layer_1" xmlns="http://www.w3.org/2000/svg" xmlns:xlink="http://www.w3.org/1999/xlink" x="0px" y="0px"
	 viewBox="0 0 202 134" style="enable-background:new 0 0 202 134;" xml:space="preserve">
<style type="text/css">
	.st0{fill:#DCDEDD;stroke:#666666;stroke-width:1.1998;stroke-miterlimit:10;}
	.st1{fill:#EF5B80;stroke:#6E0E10;stroke-width:1.2703;stroke-miterlimit:10;}
	.st2{fill:#ED2040;stroke:#6E0E10;stroke-width:1.2703;stroke-miterlimit:10;}
	.st3{fill:#EF5B80;}
	.st4{opacity:0.5;fill:#FF94B8;}
</style>
<g id="XMLID_1_">
	<ellipse id="XMLID_2656_" class="st0" cx="120" cy="122.9" rx="29.8" ry="9.1"/>
	<g id="XMLID_2599_">
		<path id="XMLID_2602_" class="st1" d="M145.4,112.1H96v4.3c0,6.4,11,11.6,24.7,11.6s24.7-5.2,24.7-11.6V112.1"/>
		<ellipse id="XMLID_2601_" class="st2" cx="120.7" cy="112.1" rx="24.7" ry="11.6"/>
		<path id="XMLID_2600_" class="st3" d="M120.7,101.6c12.9,0,23.4,4.8,24,10.7c0-0.2,0-0.4,0-0.6c0-6.3-10.8-11.3-24-11.3
			s-24,5.1-24,11.3c0,0.2,0,0.4,0,0.6C97.3,106.4,107.8,101.6,120.7,101.6z"/>
	</g>
	<g id="XMLID_2595_">
		<path id="XMLID_2598_" class="st1" d="M159.5,102.5l-49.3-1.1l-0.1,4.3c-0.1,6.4,10.8,11.9,24.4,12.2c13.6,0.3,24.8-4.7,24.9-11.1
			L159.5,102.5"/>
		
			<ellipse id="XMLID_2597_" transform="matrix(0.9998 2.141841e-002 -2.141841e-002 0.9998 2.2158 -2.8655)" class="st2" cx="134.9" cy="102" rx="24.7" ry="11.6"/>
		<path id="XMLID_2596_" class="st3" d="M135.1,91.5c12.9,0.3,23.3,5.3,23.8,11.3c0-0.2,0-0.4,0-0.6c0.1-6.3-10.5-11.6-23.8-11.8
			c-13.3-0.3-24.1,4.6-24.3,10.8c0,0.2,0,0.4,0,0.6C111.6,95.8,122.2,91.3,135.1,91.5z"/>
	</g>
	<path id="XMLID_2588_" class="st4" d="M101.9,40.8L101.9,40.8c0.3,2,1.8,3.5,3.8,3.8l0,0h0c-2,0.3-3.5,1.8-3.8,3.8v0v0
		c-0.3-2-1.8-3.5-3.8-3.8h0l0,0C100.1,44.3,101.6,42.8,101.9,40.8L101.9,40.8z"/>
	<path id="XMLID_2585_" class="st4" d="M129.4,53.4L129.4,53.4c0.4,2.9,2.7,5.1,5.5,5.5h0h0c-2.9,0.4-5.1,2.7-5.5,5.5v0l0,0
		c-0.4-2.9-2.7-5.1-5.5-5.5h0h0C126.7,58.5,129,56.3,129.4,53.4L129.4,53.4z"/>
	<path id="XMLID_2572_" class="st4" d="M138.6,70.6L138.6,70.6c0.5,3.6,3.3,6.4,6.9,6.9l0,0h0c-3.6,0.5-6.4,3.3-6.9,6.9v0v0
		c-0.5-3.6-3.3-6.4-6.9-6.9h0h0C135.3,77,138.1,74.2,138.6,70.6L138.6,70.6z"/>
	<path id="XMLID_2309_" class="st4" d="M72.5,80.9L72.5,80.9c0.5,3.6,3.3,6.4,6.9,6.9l0,0h0c-3.6,0.5-6.4,3.3-6.9,6.9l0,0v0
		c-0.5-3.6-3.3-6.4-6.9-6.9h0l0,0C69.2,87.3,72,84.4,72.5,80.9L72.5,80.9z"/>
	<path id="XMLID_2566_" class="st4" d="M102.9,7.8L102.9,7.8c0.5,3.7,3.4,6.5,7.1,7.1l0,0l0,0c-3.7,0.5-6.5,3.4-7.1,7.1v0v0
		c-0.5-3.7-3.4-6.5-7.1-7.1l0,0h0C99.5,14.4,102.4,11.5,102.9,7.8L102.9,7.8z"/>
	<g id="XMLID_2565_">
		<path id="XMLID_2605_" class="st1" d="M136,90.4l-49.3,0l0,4.3c0,6.4,11,11.6,24.7,11.6c13.6,0,24.7-5.2,24.7-11.6L136,90.4"/>
		
			<ellipse id="XMLID_2604_" transform="matrix(1 7.003207e-004 -7.003207e-004 1 6.334988e-002 -7.795734e-002)" class="st2" cx="111.3" cy="90.4" rx="24.7" ry="11.6"/>
		<path id="XMLID_2603_" class="st3" d="M111.4,79.9c12.9,0,23.4,4.8,24,10.8c0-0.2,0-0.4,0-0.6c0-6.3-10.8-11.3-24-11.3
			c-13.3,0-24,5.1-24,11.3c0,0.2,0,0.4,0,0.6C88,84.7,98.5,79.9,111.4,79.9z"/>
	</g>
	<g id="XMLID_2591_">
		<path id="XMLID_2594_" class="st1" d="M155.2,36.6l-46.2,17.2l1.5,4c2.2,6,14.4,7,27.2,2.3s21.3-13.5,19.1-19.5L155.2,36.6"/>
		
			<ellipse id="XMLID_2593_" transform="matrix(0.937 -0.3492 0.3492 0.937 -7.4782 48.9567)" class="st2" cx="132" cy="45.2" rx="24.7" ry="11.6"/>
		<path id="XMLID_2592_" class="st3" d="M128.4,35.4c12.1-4.5,23.6-3.7,26.2,1.7c0-0.2-0.1-0.4-0.2-0.6c-2.2-5.9-14-6.9-26.5-2.2
			s-20.7,13.1-18.6,19c0.1,0.2,0.1,0.4,0.2,0.5C108.2,48,116.3,39.9,128.4,35.4z"/>
	</g>
	<g id="XMLID_2606_">
		<path id="XMLID_2609_" class="st1" d="M104.9,69L60.1,48.5l-1.8,3.9c-2.7,5.8,5.2,15.2,17.6,20.8c12.4,5.7,24.6,5.5,27.3-0.3
			L104.9,69"/>
		
			<ellipse id="XMLID_2608_" transform="matrix(0.9095 0.4157 -0.4157 0.9095 31.8965 -28.9718)" class="st2" cx="82.5" cy="58.8" rx="24.7" ry="11.6"/>
		<path id="XMLID_2607_" class="st3" d="M86.8,49.3c11.7,5.3,19.3,14,17.4,19.8c0.1-0.2,0.2-0.3,0.3-0.5c2.6-5.7-5.1-14.8-17.1-20.3
			s-24-5.4-26.6,0.3c-0.1,0.2-0.2,0.4-0.2,0.5C63.6,43.9,75.2,43.9,86.8,49.3z"/>
	</g>
	<g id="XMLID_834_">
		<path id="XMLID_2305_" class="st1" d="M89.6,29.4L44.8,8.9L43,12.8c-2.7,5.8,5.2,15.2,17.6,20.8s24.6,5.5,27.3-0.3L89.6,29.4"/>
		
			<ellipse id="XMLID_2304_" transform="matrix(0.9095 0.4157 -0.4157 0.9095 14.0527 -26.1918)" class="st2" cx="67.2" cy="19.2" rx="24.7" ry="11.6"/>
		<path id="XMLID_2301_" class="st3" d="M71.5,9.7c11.7,5.3,19.3,14,17.4,19.8c0.1-0.2,0.2-0.3,0.3-0.5c2.6-5.7-5.1-14.8-17.1-20.3
			s-24-5.4-26.6,0.3c-0.1,0.2-0.2,0.4-0.2,0.5C48.3,4.3,59.8,4.3,71.5,9.7z"/>
	</g>
</g>
</svg>
