<?xml version="1.0" encoding="utf-8"?>
<!-- Generator: Adobe Illustrator 19.0.0, SVG Export Plug-In . SVG Version: 6.00 Build 0)  -->
<svg version="1.1" id="Layer_1" xmlns="http://www.w3.org/2000/svg" xmlns:xlink="http://www.w3.org/1999/xlink" x="0px" y="0px"
	 viewBox="0 0 202 134" style="enable-background:new 0 0 202 134;" xml:space="preserve">
<style type="text/css">
	.st0{fill:#B3B3B3;}
	.st1{opacity:0.5;fill:#FF94B8;}
	.st2{fill:#ED2040;stroke:#6E0E10;stroke-width:2.4721;stroke-miterlimit:10;}
	.st3{fill:#EF5B80;stroke:#6E0E10;stroke-width:0.9581;stroke-miterlimit:10;}
	.st4{fill:#ED2040;stroke:#6E0E10;stroke-width:0.9581;stroke-miterlimit:10;}
	.st5{fill:#EF5B80;}
</style>
<g id="XMLID_2306_">
	<ellipse id="XMLID_2703_" class="st0" cx="66.4" cy="117.6" rx="17.9" ry="4.2"/>
	<path id="XMLID_2702_" class="st1" d="M51.3,25.1L51.3,25.1c0.7,4.7,4.3,8.3,9,9h0l0,0c-4.7,0.7-8.3,4.3-9,9v0l0,0
		c-0.7-4.7-4.3-8.3-9-9l0,0h0C46.9,33.5,50.6,29.8,51.3,25.1L51.3,25.1z"/>
	<path id="XMLID_2705_" class="st1" d="M172.6,62.6L172.6,62.6c0.4,2.6,2.4,4.7,5.1,5.1l0,0v0c-2.6,0.4-4.7,2.4-5.1,5.1v0v0
		c-0.4-2.6-2.4-4.7-5.1-5.1v0l0,0C170.2,67.3,172.3,65.2,172.6,62.6L172.6,62.6z"/>
	<path id="XMLID_2706_" class="st1" d="M65.5,38.5L65.5,38.5c0.4,2.6,2.4,4.7,5.1,5.1h0l0,0c-2.6,0.4-4.7,2.4-5.1,5.1l0,0v0
		c-0.4-2.6-2.4-4.7-5.1-5.1l0,0h0C63.1,43.2,65.2,41.2,65.5,38.5L65.5,38.5z"/>
	<path id="XMLID_2314_" class="st2" d="M156.6,69.9L80,49.5L29.9,61.3c-0.4,0.1-0.4,0.6,0,0.7l81,24.8l45.8-16.5
		C156.8,70.3,156.8,70,156.6,69.9z"/>
	<g id="XMLID_2669_">
		<path id="XMLID_2663_" class="st2" d="M159.4,69.7l-78-20L64.1,20.8c0,0,8.3-15.1,27-12.3l59.6,12C150.8,20.5,184,21.8,159.4,69.7
			z"/>
		<polyline id="XMLID_2662_" class="st2" points="159.4,69.7 128.2,31.8 64.1,20.8 		"/>
		<path id="XMLID_2661_" class="st2" d="M81.3,49.7c0,0,18.7-8.4,21.6-22.6"/>
		<path id="XMLID_2659_" class="st2" d="M128.2,31.8c0,0,11.8-12.4,27.1-10.3"/>
	</g>
	<g id="XMLID_2664_">
		<path id="XMLID_2668_" class="st3" d="M73.9,68.6L40,53.1l-1.3,2.9c-2,4.4,3.9,11.4,13.3,15.7s18.6,4.2,20.6-0.2L73.9,68.6"/>
		
			<ellipse id="XMLID_2666_" transform="matrix(0.9095 0.4157 -0.4157 0.9095 30.4557 -18.1544)" class="st4" cx="56.9" cy="60.9" rx="18.6" ry="8.8"/>
		<path id="XMLID_2665_" class="st5" d="M60.2,53.7c8.8,4,14.5,10.6,13.1,14.9c0.1-0.1,0.1-0.3,0.2-0.4c2-4.3-3.8-11.1-12.9-15.3
			s-18.1-4.1-20,0.2c-0.1,0.1-0.1,0.3-0.2,0.4C42.7,49.6,51.4,49.7,60.2,53.7z"/>
	</g>
	<g id="XMLID_2670_">
		<path id="XMLID_2677_" class="st3" d="M98.1,57.3l-37.2,0.6l0.1,3.2c0.1,4.8,8.5,8.6,18.7,8.5s18.5-4.2,18.5-9.1L98.1,57.3"/>
		
			<ellipse id="XMLID_2676_" transform="matrix(0.9999 -1.620498e-002 1.620498e-002 0.9999 -0.9229 1.2956)" class="st4" cx="79.5" cy="57.6" rx="18.6" ry="8.8"/>
		<path id="XMLID_2671_" class="st5" d="M79.4,49.7c9.7-0.2,17.7,3.3,18.2,7.8c0-0.1,0-0.3,0-0.4c-0.1-4.7-8.3-8.4-18.3-8.2
			s-18.1,4.1-18,8.8c0,0.1,0,0.3,0,0.4C61.8,53.6,69.7,49.9,79.4,49.7z"/>
	</g>
	<g id="XMLID_2678_">
		<path id="XMLID_2681_" class="st3" d="M93.8,68.6L56.7,72l0.3,3.2c0.4,4.8,9.1,8,19.3,7.1s18.2-5.6,17.7-10.4L93.8,68.6"/>
		
			<ellipse id="XMLID_2680_" transform="matrix(0.9959 -9.047939e-002 9.047939e-002 0.9959 -6.0546 7.098)" class="st4" cx="75.3" cy="70.3" rx="18.6" ry="8.8"/>
		<path id="XMLID_2679_" class="st5" d="M74.5,62.5c9.7-0.9,17.9,2,18.8,6.4c0-0.1,0-0.3,0-0.4c-0.4-4.7-8.9-7.8-18.8-6.9
			c-10,0.9-17.7,5.4-17.3,10.1c0,0.1,0,0.3,0.1,0.4C57.3,67.6,64.9,63.3,74.5,62.5z"/>
	</g>
	<g id="XMLID_2682_">
		<path id="XMLID_2685_" class="st3" d="M121.3,81.1L87.5,65.6l-1.3,2.9c-2,4.4,3.9,11.4,13.3,15.7S118,88.4,120,84L121.3,81.1"/>
		
			<ellipse id="XMLID_2684_" transform="matrix(0.9095 0.4157 -0.4157 0.9095 39.9318 -36.7617)" class="st4" cx="104.4" cy="73.3" rx="18.6" ry="8.8"/>
		<path id="XMLID_2683_" class="st5" d="M107.7,66.2c8.8,4,14.5,10.6,13.1,14.9c0.1-0.1,0.1-0.3,0.2-0.4c2-4.3-3.8-11.1-12.9-15.3
			S90,61.3,88,65.6c-0.1,0.1-0.1,0.3-0.2,0.4C90.2,62.1,98.9,62.1,107.7,66.2z"/>
	</g>
	<g id="XMLID_2686_">
		<path id="XMLID_2689_" class="st3" d="M140.7,74.1l-37.2,1.4l0.1,3.2c0.2,4.8,8.7,8.5,18.9,8.1c10.3-0.4,18.4-4.6,18.3-9.5
			L140.7,74.1"/>
		
			<ellipse id="XMLID_2688_" transform="matrix(0.9993 -3.732556e-002 3.732556e-002 0.9993 -2.7083 4.6116)" class="st4" cx="122.2" cy="74.8" rx="18.6" ry="8.8"/>
		<path id="XMLID_2687_" class="st5" d="M121.9,66.9c9.7-0.4,17.7,2.9,18.4,7.4c0-0.1,0-0.3,0-0.4c-0.2-4.7-8.4-8.2-18.4-7.9
			c-10,0.4-18,4.5-17.8,9.2c0,0.1,0,0.3,0,0.4C104.4,71.2,112.2,67.3,121.9,66.9z"/>
	</g>
	<g id="XMLID_2690_">
		<path id="XMLID_2693_" class="st3" d="M149.3,76.1l-33.8-15.5l-1.3,2.9c-2,4.4,3.9,11.4,13.3,15.7s18.6,4.2,20.6-0.2L149.3,76.1"
			/>
		
			<ellipse id="XMLID_2692_" transform="matrix(0.9095 0.4157 -0.4157 0.9095 40.41 -48.8126)" class="st4" cx="132.3" cy="68.4" rx="18.6" ry="8.8"/>
		<path id="XMLID_2691_" class="st5" d="M135.6,61.2c8.8,4,14.5,10.6,13.1,14.9c0.1-0.1,0.1-0.3,0.2-0.4c2-4.3-3.8-11.1-12.9-15.3
			c-9.1-4.2-18.1-4.1-20,0.2c-0.1,0.1-0.1,0.3-0.2,0.4C118.1,57.2,126.8,57.2,135.6,61.2z"/>
	</g>
	<g id="XMLID_2694_">
		<path id="XMLID_2697_" class="st3" d="M127.1,55.1L91,64.3l0.8,3.1c1.2,4.7,10.2,6.5,20.2,3.9c10-2.5,17.1-8.4,15.9-13.1
			L127.1,55.1"/>
		
			<ellipse id="XMLID_2696_" transform="matrix(0.9695 -0.2451 0.2451 0.9695 -11.3048 28.5616)" class="st4" cx="109.1" cy="59.7" rx="18.6" ry="8.8"/>
		<path id="XMLID_2695_" class="st5" d="M107.2,52c9.4-2.4,18-0.8,19.5,3.4c0-0.1,0-0.3-0.1-0.4c-1.2-4.6-10-6.3-19.7-3.8
			c-9.7,2.5-16.6,8.2-15.5,12.7c0,0.1,0.1,0.3,0.1,0.4C91,59.8,97.7,54.4,107.2,52z"/>
	</g>
	<g id="XMLID_2404_">
		<path id="XMLID_2620_" class="st2" d="M29.5,62.3l3.6,28.9c0.8,6.6,5.1,12.3,11.2,15l58.8,25.1c5,2.2,10.7,2,15.6-0.4l37.8-18.3
			c1.5-0.7,2.5-2.3,2.5-4l0.5-37.7c0-0.6-0.4-1.1-1-1.1l-49.9,17.3L30.6,61.4C30,61.2,29.4,61.6,29.5,62.3z"/>
		<line id="XMLID_2424_" class="st2" x1="108.6" y1="86.6" x2="108.6" y2="132.5"/>
	</g>
	<path id="XMLID_2709_" class="st1" d="M150.4,1.3L150.4,1.3c0.4,2.6,2.4,4.7,5.1,5.1l0,0l0,0c-2.6,0.4-4.7,2.4-5.1,5.1v0v0
		c-0.4-2.6-2.4-4.7-5.1-5.1l0,0v0C148,5.9,150.1,3.9,150.4,1.3L150.4,1.3z"/>
	<path id="XMLID_2714_" class="st1" d="M56.9,14.2L56.9,14.2c0.4,2.6,2.4,4.7,5.1,5.1h0l0,0c-2.6,0.4-4.7,2.4-5.1,5.1v0l0,0
		c-0.4-2.6-2.4-4.7-5.1-5.1h0h0C54.5,18.9,56.5,16.9,56.9,14.2L56.9,14.2z"/>
	<g id="XMLID_3071_">
		<path id="XMLID_3074_" class="st3" d="M95.8,74.2l-36.7,6.4l0.6,3.2c0.8,4.8,9.7,7.2,19.8,5.5s17.7-7,16.8-11.8L95.8,74.2"/>
		
			<ellipse id="XMLID_3073_" transform="matrix(0.9853 -0.1707 0.1707 0.9853 -12.0686 14.3568)" class="st4" cx="77.4" cy="77.3" rx="18.6" ry="8.8"/>
		<path id="XMLID_3072_" class="st5" d="M76.1,69.6c9.6-1.7,18,0.5,19.2,4.9c0-0.1,0-0.3-0.1-0.4c-0.8-4.6-9.5-7-19.3-5.3
			c-9.9,1.7-17.2,6.9-16.4,11.5c0,0.1,0.1,0.3,0.1,0.4C59.3,76.1,66.5,71.2,76.1,69.6z"/>
	</g>
	<g id="XMLID_3075_">
		<path id="XMLID_3078_" class="st3" d="M57.4,91.1L27,69.7l-1.9,2.6c-2.8,4,1.7,12,10.1,17.9c8.4,5.9,17.5,7.5,20.3,3.6L57.4,91.1"
			/>
		
			<ellipse id="XMLID_3077_" transform="matrix(0.8169 0.5768 -0.5768 0.8169 54.1112 -9.6238)" class="st4" cx="42.2" cy="80.4" rx="18.6" ry="8.8"/>
		<path id="XMLID_3076_" class="st5" d="M46.8,74c7.9,5.6,12.3,13.1,10.1,17.1c0.1-0.1,0.2-0.2,0.3-0.3c2.7-3.9-1.7-11.7-9.9-17.4
			s-17-7.3-19.7-3.5c-0.1,0.1-0.2,0.2-0.2,0.4C30.3,66.7,38.8,68.4,46.8,74z"/>
	</g>
	<g id="XMLID_3079_">
		<path id="XMLID_3082_" class="st3" d="M81.2,104.1l-36.5,7.3l0.6,3.2c1,4.7,9.9,7,20,4.9c10.1-2,17.5-7.5,16.5-12.3L81.2,104.1"/>
		
			<ellipse id="XMLID_3081_" transform="matrix(0.9803 -0.1975 0.1975 0.9803 -20.0374 14.5595)" class="st4" cx="63" cy="107.7" rx="18.6" ry="8.8"/>
		<path id="XMLID_3080_" class="st5" d="M61.4,100c9.5-1.9,18,0,19.3,4.4c0-0.1,0-0.3-0.1-0.4c-0.9-4.6-9.6-6.8-19.5-4.8
			s-17,7.3-16.1,12c0,0.1,0.1,0.3,0.1,0.4C44.9,107,51.9,101.9,61.4,100z"/>
	</g>
	<g id="XMLID_2698_">
		<path id="XMLID_2701_" class="st3" d="M90.8,58.8l-37.1,3.4l0.3,3.2c0.4,4.8,9.1,8,19.3,7.1S91.6,66.8,91.1,62L90.8,58.8"/>
		
			<ellipse id="XMLID_2700_" transform="matrix(0.9959 -9.047939e-002 9.047939e-002 0.9959 -5.174 6.7897)" class="st4" cx="72.3" cy="60.5" rx="18.6" ry="8.8"/>
		<path id="XMLID_2699_" class="st5" d="M71.6,52.6c9.7-0.9,17.9,2,18.8,6.4c0-0.1,0-0.3,0-0.4c-0.4-4.7-8.9-7.8-18.8-6.9
			c-10,0.9-17.7,5.4-17.3,10.1c0,0.1,0,0.3,0.1,0.4C54.4,57.8,61.9,53.5,71.6,52.6z"/>
	</g>
</g>
</svg>
